<?xml version="1.0" encoding="utf-8"?>
<!-- Generator: Adobe Illustrator 27.5.0, SVG Export Plug-In . SVG Version: 6.00 Build 0)  -->
<svg version="1.1" xmlns="http://www.w3.org/2000/svg" xmlns:xlink="http://www.w3.org/1999/xlink" x="0px" y="0px"
	 viewBox="0 0 500 500" style="enable-background:new 0 0 500 500;" xml:space="preserve">
<g id="OBJECTS">
	<g>
		<g>
			<g>
				<path style="fill:#DDB76C;" d="M301.081,281.526c2.831-7.947,3.267-17.01,1.261-25.199c-0.814-3.324-2.112-6.501-3.793-9.474
					c8.521-0.208,16.981-3.524,23.664-8.748c3.443-2.691,7.075-6.216,7.652-10.775c0.274-2.166-0.119-4.354-0.63-6.455
					c-0.543-2.236-1.22-4.521-2.23-6.594c-1.797-3.685-5.61-7.329-10.046-6.199c-1.898,0.484-3.526,1.459-5.274,2.294
					c-1.858,0.888-3.696,1.486-5.78,1.476c-2.131-0.011-4.216-0.388-6.311-0.737c-1.016-0.169-2.022-0.382-3.028-0.601
					c-1.344-0.293-2.537-0.844-3.759-1.461c-2.331-1.177-4.695-2.128-6.698-3.855c-1.898-1.636-3.075-3.875-4.506-5.893
					c-1.395-1.968-2.924-3.861-5.022-5.113c-1.514-0.903-3.631-1.422-5.381-1.03c-2.24,0.501-3.559,2.266-4.222,4.375
					c-0.612,1.951-0.54,4.034-0.985,6.018c-1.683,2.987-5.13,4.639-7.459,7.116c-2.581,2.746-3.827,6.351-2.95,10.056
					c0.812,3.427,2.871,6.359,3.866,9.722c0.472,1.595,0.754,3.169,0.464,4.827c-0.297,1.702-0.358,3.477,1.394,4.401
					c1.043,0.551,2.387,0.615,3.534,0.812c1.302,0.223,2.6,0.333,3.909,0.503c1.304,0.168,2.587,0.466,3.889,0.643
					c0.069,0.009,0.138,0.016,0.207,0.025c-0.044,0.019-0.087,0.04-0.131,0.059c-4.707,1.997-9.52,3.737-14.341,5.434
					c-4.851,1.708-9.762,3.118-14.824,4.046c-5.019,0.92-10.098,1.661-15.166,2.253c-4.715,0.551-10.305,0.578-14.015,3.976
					c-1.64,1.503-2.783,3.491-2.973,5.729c-0.144,1.697,0.279,3.326,0.719,4.946c-0.33,0.249-0.468,0.764-0.039,1.082
					c0.178,0.132,0.309,0.291,0.44,0.449c0.01,0.043,0.023,0.086,0.034,0.129c0.251,1.049,0.355,2.16,0.172,3.228
					c-0.123,0.715-0.312,1.408-0.671,2.005c-0.03,0.044-0.058,0.098-0.089,0.139c-0.086,0.117-0.181,0.225-0.271,0.339
					c-0.117,0.13-0.224,0.265-0.371,0.378c-0.098,0.076-0.146,0.165-0.159,0.255c-1.456,1.63-3.228,2.981-4.408,4.846
					c-1.189,1.88-1.706,4.066-0.811,6.182c0.91,2.15,3.069,3.618,5.234,4.287c2.52,0.779,5.142,1.064,7.621,2
					c2.439,0.922,4.808,2.154,6.895,3.721c4.343,3.26,6.869,7.853,9.228,12.63c2.204,4.463,4.564,8.946,8.49,12.148
					c3.676,2.997,8.298,4.056,12.871,2.734c4.366-1.262,8.006-4.275,11.465-7.094c4.493-3.663,8.94-7.375,13.285-11.213
					c4.281-3.782,8.619-7.587,12.424-11.858C296.814,290.723,299.388,286.278,301.081,281.526z M270.114,240.024
					c-1.05-0.202-2.073-0.481-3.109-0.741c-1.126-0.283-2.285-0.456-3.426-0.67c-0.787-0.148-1.916-0.237-1.979-1.228
					c-0.05-0.784,0.259-1.601,0.345-2.376c0.182-1.637-0.106-3.287-0.663-4.828c-1.135-3.141-3.305-5.814-4.398-8.988
					c-0.525-1.525-0.839-3.231-0.412-4.82c0.565-2.102,2.135-3.457,3.752-4.783c1.421-1.165,3.004-2.456,4.326-3.931
					c3.262-2.281,2.839-7.402,4.472-10.703c0.892-1.802,2.798-3.093,4.852-2.754c2.337,0.386,4.038,2.067,5.294,3.981
					c1.314,2.003,2.204,4.236,3.604,6.196c1.411,1.976,3.24,3.478,5.356,4.647c1.043,0.576,2.168,1.056,3.308,1.408
					c1.174,0.363,2.404,0.497,3.584,0.835c2.055,0.589,3.965,1.659,6.067,2.105c1.944,0.413,3.901,0.618,5.869,0.257
					c1.904-0.35,3.627-1.239,5.307-2.166c1.578-0.87,3.383-1.8,5.219-1.839c2.001-0.043,3.852,0.754,5.307,2.099
					c1.605,1.484,2.595,3.499,3.336,5.523c0.74,2.022,1.416,4.145,1.899,6.244c0.462,2.008,0.675,4.226-0.153,6.172
					c-0.917,2.154-2.737,3.842-4.525,5.284c-6.551,5.282-14.254,8.803-22.62,9.959c-1.014,0.14-2.024,0.29-3.043,0.39
					c-0.022,0.002-0.035,0.013-0.056,0.016c-0.138-0.219-0.257-0.449-0.399-0.665c-2.527-3.845-6.232-7.598-11.147-7.683
					c-2.324-0.04-4.493,0.717-6.584,1.664c-1.692,0.766-3.371,1.558-5.063,2.321C273,240.616,271.565,240.302,270.114,240.024z
					 M285.36,300.081c-3.979,3.924-8.231,7.613-12.522,11.19c-3.842,3.204-7.712,6.567-12.006,9.162
					c-3.618,2.187-7.903,3.573-12.026,1.97c-4.334-1.685-7.496-5.456-9.859-9.321c-2.63-4.302-4.623-9.05-7.813-12.993
					c-3.189-3.942-7.324-7.183-12.131-8.876c-2.447-0.862-5.053-1.106-7.492-1.963c-1.947-0.684-4.208-1.981-4.255-4.32
					c-0.045-2.225,1.72-4.092,3.203-5.53c1.81-1.754,3.747-3.538,4.283-6.111c0.17-0.816,0.168-1.616,0.006-2.364
					c-0.19-1.99-1.11-3.78-1.707-5.686c-0.337-1.076-0.54-2.244-0.247-3.351c0.305-1.154,0.962-2.141,1.839-2.94
					c1.807-1.644,4.186-2.393,6.56-2.748c2.425-0.363,4.889-0.411,7.326-0.67c2.493-0.265,5.008-0.534,7.472-0.999
					c4.904-0.927,9.753-2.131,14.581-3.388c4.773-1.242,9.535-2.467,14.183-4.131c4.048-1.449,8.005-3.153,11.903-4.969
					c0.06-0.014,0.113-0.029,0.148-0.069c0.564-0.263,1.13-0.521,1.692-0.789c2.012-0.959,4.086-1.994,6.3-2.384
					c2.351-0.414,4.494,0.198,6.396,1.614c3.501,2.608,5.914,6.764,7.635,10.703c3.337,7.638,4.473,16.244,2.536,24.398
					c-0.999,4.204-2.719,8.201-5.126,11.791C293.122,291.959,289.337,296.158,285.36,300.081z"/>
				<path style="fill:#DDB76C;" d="M238.777,312.119c-1.501-1.508-3.365-2.136-5.383-2.694c-2.035-0.562-4.118-0.925-6.16-1.458
					c-4.132-1.078-8.147-2.903-11.044-6.138c-0.101-0.113-0.211-0.182-0.323-0.231c-0.088-0.194-0.179-0.384-0.251-0.559
					c-0.455-1.112-0.806-2.24-1.163-3.388c-0.692-2.226-1.301-4.462-1.866-6.724c-0.298-1.193-2.036-0.734-1.626,0.437
					c0.758,2.168,1.477,4.336,2.111,6.543c0.285,0.991,0.602,1.976,0.807,2.987c0.103,0.508,0.363,1.193,0.289,1.71
					c-0.06,0.422-0.303,0.884-0.486,1.261c-1.532,3.151-5.406,4.681-8.667,5.185c-3.76,0.581-7.575-0.09-11.303-0.595
					c-4.091-0.554-8.16-0.759-12.286-0.792c-8.01-0.063-16.145,0.232-23.976-1.79c-6.879-1.776-14.438-6.219-16.909-13.274
					c-2.263-6.464-0.205-13.981-3.777-20.046c-1.941-3.296-4.832-6.044-5.715-9.882c-0.799-3.47-0.303-7.017,0.417-10.45
					c0.417-1.99,0.745-4.187,1.87-5.925c0.073-0.113,0.156-0.214,0.236-0.319c4.198,0.641,4.922,6.113,6.931,9.112
					c1.233,1.841,3.056,2.807,5.184,3.233c2.213,0.443,4.507,0.285,6.691,0.912c2.485,0.714,4.461,2.47,6.639,3.779
					c2.007,1.206,4.278,1.793,6.61,1.744c4.822-0.101,9.154-2.79,13.136-5.234c2.393-1.469,4.793-3.088,7.574-3.705
					c2.377-0.527,4.658-0.41,6.978,0.188c6.708,3.388,10.844,10.16,13.5,17.003c0.721,1.858,1.353,3.748,1.941,5.653
					c0.355,1.153,2.172,0.427,1.752-0.735c-1.433-3.964-3.073-7.861-5.255-11.478c-2.137-3.542-4.7-6.618-7.873-9.273
					c-2.998-2.508-6.657-4.507-10.551-5.128c-3.955-0.632-7.956,0.104-11.861,0.708c-3.973,0.615-7.895,0.857-11.898,0.363
					c-3.963-0.489-7.821-1.701-11.426-3.408c-1.784-0.845-3.487-1.836-5.11-2.959c-1.823-1.262-3.578-2.699-5.653-3.539
					c-1.56-0.632-3.337-0.926-4.995-0.537c-1.836,0.431-3.223,1.667-4.122,3.298c-1.023,1.857-1.395,3.978-1.652,6.055
					c-0.225,1.821-0.468,3.654-0.594,5.484c-0.127,1.844-0.12,3.741,0.231,5.561c0.357,1.849,1.09,3.541,2.053,5.152
					c1.069,1.788,2.408,3.403,3.432,5.22c0.873,1.549,1.552,3.246,1.969,4.975c0.842,3.492,0.716,7.151,1.274,10.69
					c1.21,7.677,6.42,13.878,13.477,16.983c0.906,0.399,1.838,0.756,2.787,1.075c-1.919,0.592-3.741,1.593-5.293,2.868
					c-5.14,4.223-7.015,11.223-8.718,17.362c-2,7.21-4.27,14.342-6.318,21.54c-0.214,0.752-0.425,1.505-0.635,2.258
					c-0.405,0.21-0.46,0.646-0.284,1.002c-0.051,0.225-0.074,0.453-0.014,0.678c0.119,0.444,0.552,0.794,0.856,1.126
					c1.199,1.313,2.281,2.732,3.456,4.068c2.301,2.618,4.822,5.129,7.659,7.166c2.771,1.989,5.654,3.52,8.974,4.36
					c3.068,0.776,6.283,0.958,9.436,0.927c6.469-0.064,13.066-0.746,19.313-2.473c6.212-1.717,12.321-5.046,15.816-10.645
					c1.755-2.811,2.673-5.967,3.329-9.19c0.668-3.279,1.451-6.478,2.903-9.51c2.917-6.091,7.751-11.027,10.708-17.091
					c2.301-4.719,3.585-10.327,2.019-15.472c-0.036-0.12-0.096-0.23-0.136-0.349c2.31,1.597,5.192,2.407,7.912,3.116
					c2.081,0.543,4.166,1.034,6.203,1.734c2.073,0.712,3.973,1.784,6.01,2.571C238.537,313.45,239.317,312.661,238.777,312.119z
					 M137.867,243.939c1.941,0.075,3.71,0.966,5.319,1.989c1.712,1.089,3.352,2.269,5.127,3.258
					c6.493,3.617,13.924,5.575,21.36,5.64c3.723,0.033,7.396-0.543,11.092-0.901c2.353-0.228,4.688-0.184,6.969,0.225
					c-2.273,0.303-4.546,1.129-6.453,1.964c-4.564,1.997-8.536,5.31-13.509,6.323c-2.288,0.466-4.56,0.328-6.731-0.56
					c-2.321-0.95-4.499-2.217-6.873-3.038c-2.216-0.766-4.475-0.77-6.776-1.057c-1.163-0.145-2.325-0.406-3.319-1.053
					c-1.024-0.666-1.707-1.616-2.257-2.69c-1.156-2.259-1.67-4.791-3.23-6.842c-0.889-1.169-2.144-2.203-3.551-2.552
					C135.864,244.152,136.826,243.899,137.867,243.939z M138.831,340.364c1.056-4.167,1.98-8.358,3.113-12.506
					c1.931-7.072,4.673-14.809,11.717-18.245c1.579-0.77,3.303-1.254,5.039-1.36c1.503,0.325,3.021,0.56,4.532,0.705
					c0.026,0.01,0.053,0.016,0.079,0.027c0.116,0.048,0.229,0.042,0.336,0.013c0.111,0.009,0.222,0.023,0.332,0.032
					c4.18,0.32,8.382,0.185,12.569,0.111c4.339-0.077,8.675-0.147,13.001,0.278c4.072,0.401,8.066,1.466,12.165,1.606
					c3.777,0.13,7.656-0.604,10.645-3.068c0.16-0.132,0.311-0.276,0.466-0.416c-1.178,1.769-2.457,3.462-3.877,5.061
					c-2.2,2.476-4.647,4.712-7.161,6.863c-2.36,2.019-4.773,4-7.362,5.72c-2.591,1.721-5.297,3.254-8.042,4.714
					c-10.64,5.66-21.699,10.385-33.001,14.554c-5.668,2.091-11.389,4.012-17.126,5.897c0.332-1.264,0.649-2.532,0.978-3.79
					C137.774,344.497,138.307,342.432,138.831,340.364z M212.804,323.549c-2.262,3.969-5.082,7.583-7.397,11.518
					c-1.127,1.915-2.154,3.901-2.919,5.99c-0.736,2.011-1.242,4.091-1.826,6.148c-1.193,4.197-2.369,8.344-5.307,11.694
					c-2.781,3.171-6.587,5.499-10.553,6.864c-4.099,1.41-8.357,1.867-12.662,2.135c-4.16,0.259-8.403,0.489-12.567,0.212
					c-4.818-0.32-9.643-1.61-13.557-4.538c-2.119-1.586-3.997-3.435-5.735-5.426c-1.615-1.849-3.175-3.743-4.584-5.753
					c0.016-0.052,0.027-0.105,0.043-0.157c11.275-3.878,22.595-7.691,33.532-12.458c5.544-2.417,10.985-5.141,16.163-8.27
					c2.6-1.571,5.087-3.3,7.6-5.004c2.577-1.747,5.162-3.498,7.667-5.348c5.758-4.255,11.125-9.636,14.865-15.774
					C218.239,311.216,215.808,318.278,212.804,323.549z"/>
				<path style="fill:#DDB76C;" d="M244.401,373.359c-1.123-7.412-6.491-13.436-7.372-20.903c-0.52-4.409,0.02-8.849-0.623-13.251
					c-0.567-3.879-1.785-7.686-3.343-11.276c-3.22-7.416-8.004-14.074-13.021-20.363c-0.641-0.804-1.287-1.605-1.934-2.405
					c-0.617-0.763-1.825,0.161-1.21,0.933c4.97,6.227,10.108,12.545,13.692,19.703c1.745,3.485,3.124,7.129,3.802,10.977
					c0.35,1.984,0.549,4.006,0.519,6.022c-0.033,2.248-0.162,4.497-0.11,6.746c0.176,7.685,5.284,14.038,7.339,21.223
					c1.069,3.736,0.965,7.59-0.551,11.19c-1.683,3.997-4.639,7.23-7.938,9.97c-3.626,3.012-7.642,5.568-11.544,8.203
					c-3.903,2.636-7.812,5.614-10.511,9.53c-0.512,0.742-0.965,1.521-1.386,2.317c-1.188-0.606-2.326-1.229-3.393-2.117
					c-1.397-1.164-2.609-2.557-3.624-4.064c-1.035-1.537-1.721-3.337-1.97-5.171c-0.244-1.803-0.25-3.618-0.749-5.382
					c-0.534-1.886-1.752-3.377-3.391-4.435c-1.147-0.741-2.402-1.308-3.601-1.964c-0.148-0.275-0.405-0.463-0.729-0.422
					c-0.362-0.22-0.721-0.443-1.059-0.701c-2.907-2.223-4.225-5.857-4.17-9.437c0.072-4.648,2.243-8.95,4.086-13.11
					c0.432-0.974-1.093-1.618-1.521-0.645c-1.725,3.927-3.274,7.978-3.632,12.29c-0.298,3.589,0.414,7.671,2.614,10.608
					c0.558,0.745,1.212,1.365,1.922,1.914c-1.823,1.033-3.649,2.061-5.453,3.127c-2.125,1.256-4.166,2.654-6.317,3.867
					c-2.017,1.137-4.261,1.963-6.573,2.198c-2.144,0.218-4.271,0.097-6.399-0.215c-1.932-0.284-3.855-0.711-5.757-1.182
					c1.155-1.267,1.86-2.899,2.144-4.609c0.177-1.069,0.062-2.244-0.013-3.321c-0.084-1.196-0.261-2.373-0.457-3.556
					c-0.872-5.261-1.773-10.52-2.769-15.759c-0.191-1.003-1.768-0.809-1.581,0.203c0.906,4.897,1.919,9.772,2.913,14.652
					c0.423,2.079,1.031,4.428,0.615,6.552c-0.427,2.18-1.101,4.273-3.003,5.605c-0.627,0.439-0.236,1.272,0.378,1.435
					c4.269,1.132,8.684,2.353,13.148,1.799c2.285-0.283,4.445-1.079,6.535-2.01c2.237-0.997,4.462-2.093,6.606-3.278
					c2.576-1.424,5.118-2.908,7.668-4.379c0.36,0.213,0.725,0.419,1.097,0.62c1.86,1.003,3.724,2.018,4.679,3.999
					c0.823,1.708,1.001,3.641,1.418,5.47c0.417,1.826,1.003,3.604,1.825,5.289c0.936,1.921,2.134,3.62,3.682,5.099
					c1.474,1.408,3.365,2.862,5.336,3.462c1.023,0.311,1.678-0.808,1.124-1.496c2.188-4.126,5.625-7.502,9.324-10.287
					c3.861-2.908,8.124-5.207,11.997-8.095C239.768,389.6,245.727,382.109,244.401,373.359z"/>
				<path style="fill:#DDB76C;" d="M306.691,377.397c1.85-4.206,3.481-8.799,3.721-13.421c0.118-2.26,0.008-4.542-0.581-6.735
					c-0.676-2.516-1.969-4.783-3.434-6.918c-3.234-4.715-6.674-9.416-10.669-13.518c-3.895-3.998-8.652-7.142-13.71-9.477
					c-4.963-2.291-10.226-3.811-15.511-5.155c-1.356-0.345-2.721-0.655-4.085-0.968c-1.034-0.237-1.268,1.411-0.232,1.636
					c5.183,1.122,10.39,2.158,15.411,3.897c2.488,0.862,4.909,1.904,7.218,3.173c2.372,1.304,4.519,3.032,6.486,4.884
					c4.042,3.805,7.451,8.295,10.711,12.767c2.199,3.018,4.875,6.159,6.203,9.746c0.283,1.72,0.205,3.474-0.191,5.199
					c-0.559,2.436-1.856,4.429-3.452,6.311c-1.687,1.99-3.279,3.996-3.852,6.599c-0.429,1.949-0.495,4.277,0.116,6.232
					c-0.73,0.327-1.542,0.498-2.464,0.466c-1.976-0.068-3.854-0.551-5.658,0.565c-1.881,1.163-2.489,3.499-3.24,5.428
					c-0.374,0.962-0.852,2.003-1.623,2.717c-0.743,0.688-1.887,1.024-2.874,1.127c-2.244,0.234-4.555-0.288-6.769-0.589
					c-5.652-0.768-11.297-1.568-16.941-2.394c-2.728-0.399-5.465-0.723-8.196-1.099c-2.54-0.349-5.301-0.807-7.533-2.148
					c-1.075-0.646-1.965-1.526-2.705-2.533c-0.727-0.99-2.284,0.205-1.512,1.166c3.436,4.279,9.436,5.289,14.556,5.953
					c5.958,0.772,11.933,1.398,17.894,2.146c2.718,0.341,5.453,0.803,8.19,0.947c2.07,0.109,4.379-0.041,6.196-1.132
					c0.925-0.555,1.695-1.215,2.267-2.14c0.615-0.994,1.043-2.072,1.51-3.14c0.434-0.993,0.858-2.025,1.732-2.717
					c0.823-0.652,1.823-0.716,2.835-0.744c1.002-0.028,1.996,0.125,2.999,0.107c1.097-0.021,2.147-0.331,3.088-0.892
					C304.574,381.565,305.788,379.448,306.691,377.397z M301.836,378.189c-0.021-1.186,0.287-2.368,0.77-3.443
					c1.134-2.522,3.312-4.38,4.782-6.691c0.566-0.89,1.009-1.837,1.353-2.812c-0.516,2.75-1.552,5.451-2.505,8.003
					c-0.777,2.079-1.524,4.259-2.785,6.104c-0.344,0.503-0.721,0.939-1.129,1.315C302.056,379.863,301.851,379.051,301.836,378.189z
					"/>
				<path style="fill:#DDB76C;" d="M377.688,273.536c0.118-0.398,0.143-0.817,0.006-1.298c-0.272-0.954-0.836-1.832-1.27-2.718
					c-0.535-1.094-1.059-2.193-1.558-3.304c-0.45-1.003-0.941-2.02-0.778-3.147c0.139-0.954,0.537-1.855,0.586-2.824
					c0.045-0.883-0.182-1.737-0.519-2.546c-0.323-0.778-0.754-1.523-0.989-2.336c-0.3-1.04,0.095-1.893,0.671-2.755
					c1.313-1.965,2.276-3.939,2.945-6.213c0.315-1.072,0.57-2.156,0.85-3.237c0.276-1.066,0.498-2.137,0.415-3.245
					c-0.074-0.996-0.462-1.947-0.765-2.888c-0.369-1.149-0.949-2.264-1.484-3.344c-0.545-1.101-1.095-2.199-1.643-3.298
					c-0.041-0.082-0.099-0.135-0.152-0.196c0.721-1.393,0.906-2.968,0.435-4.512c-0.493-1.615-1.608-2.927-2.843-4.037
					c-3.092-2.78-6.865-4.873-10.503-6.844c-1.05-0.569-2.12-1.088-3.202-1.576c12.389-1.304,23.877-7.673,32.402-16.639
					c4.524-4.758,8.528-10.218,11.193-16.243c1.312-2.967,2.221-6.154,2.824-9.337c0.61-3.219,0.699-6.515,1.099-9.762
					c0.431-3.503,1.453-7.07,3.655-9.884c2.115-2.702,4.793-5.172,5.027-8.81c0.047-0.722-0.585-1.104-1.137-1.063
					c-1.227-0.859-2.655-1.384-4.019-1.992c-1.405-0.625-2.811-1.247-4.22-1.862c-2.818-1.23-5.642-2.445-8.493-3.597
					c-5.363-2.169-10.92-4.357-16.739-4.838c-9.917-0.821-19.379,3.707-25.827,11.116c-1.084,1.245-2.107,2.58-3.355,3.668
					c-1.166,1.016-2.547,1.796-3.947,2.438c-1.725,0.791-3.536,1.309-5.337,1.857c1.153-4.12,1.78-8.377-0.321-12.369
					c-1.21-2.3-3.01-4.425-3.425-7.065c-0.194-1.234-0.028-2.498,0.77-3.491c0.813-1.011,1.987-1.688,2.905-2.6
					c0.934-0.928,1.6-2.039,1.671-3.382c0.064-1.226-0.296-2.409-0.711-3.548c-0.983-2.692-2.042-5.367-3.355-7.917
					c-1.275-2.477-2.786-4.777-4.787-6.73c-1.986-1.938-4.342-3.461-6.939-4.438c-1.409-0.53-2.982-0.742-4.315-1.461
					c-1.225-0.661-1.765-1.719-2.173-2.984c-0.691-2.14-0.546-4.979-2.383-6.56c-0.291-0.25-0.795-0.239-1.088,0
					c-0.757,0.616-1.589,1.104-2.358,1.706c-0.762,0.597-1.462,1.27-2.128,1.972c-1.345,1.418-2.485,3.033-3.59,4.639
					c-2.126,3.09-4.383,6.28-7.845,7.966c-2.911,1.418-6.119,1.956-9.27,2.535c-3.02,0.555-6.062,1.228-8.561,3.113
					c-3.773,2.846-4.86,7.607-5.129,12.092c-2.6-0.974-5.351-1.512-8.138-1.4c-3.191,0.128-6.304,0.859-9.512,0.765
					c-3.04-0.089-6.104-0.252-9.146-0.208c-2.776,0.041-5.626,0.402-8.137,1.66c-1.291,0.647-2.336,1.534-3.389,2.509
					c-1.09,1.009-2.184,1.931-3.663,2.276c-1.368,0.319-2.787,0.309-4.179,0.432c-1.445,0.127-2.888,0.245-4.302,0.587
					c-2.768,0.669-5.453,2.04-7.143,4.402c-0.53,0.74-0.925,1.552-1.195,2.408c-3.225-3.99-6.584-7.867-10.224-11.493
					c-0.758-0.755-1.546-1.479-2.282-2.255c-0.602-0.635-1.204-1.273-1.961-1.724c-1.642-0.98-3.173-0.474-4.703,0.442
					c-3.436,2.058-6.697,4.326-9.101,7.583c-4.491,6.085-5.886,13.9-5.879,21.311c0.003,3.559,0.584,7.258-0.3,10.757
					c-0.921,3.645-4.461,6.012-5.035,9.762c-0.444,2.902,0.922,5.622,1.333,8.436c0.234,1.599,0.002,3.054-0.868,4.438
					c-0.969,1.54-2.299,2.865-2.981,4.577c-0.684,1.718-0.488,3.549-0.388,5.349c0.105,1.886,0.239,3.776,0.558,5.639
					c0.398,2.326,1.191,4.431,2.304,6.385c-2.57-1.948-5.723-2.997-8.867-3.558c-3.047-0.544-6.338-0.758-8.981-2.541
					c-1.418-0.956-2.451-2.347-3.799-3.381c-1.146-0.878-2.534-1.475-3.989-1.483c-2.655-0.014-4.992,1.677-6.99,3.243
					c-2.889,2.263-5.794,4.497-8.717,6.716c-1.35,1.025-2.729,2.031-4.264,2.763c-1.563,0.745-3.178,1.034-4.846,1.435
					c-3.283,0.79-5.803,2.75-8.218,5.029c-2.56,2.415-4.904,5.058-7.016,7.872c-2.161,2.879-4.074,5.943-5.734,9.137
					c-1.5,2.885-2.952,5.895-3.848,9.031c-0.398,1.393-0.645,2.822-0.64,4.273c0.005,1.529,0.406,2.938,0.986,4.343
					c0.591,1.433,1.097,2.781,1.315,4.325c0.205,1.456,0.317,2.924,0.759,4.336c2.096,6.705,10.925,6.358,16.542,6.709
					c1.833,0.115,3.668,0.192,5.504,0.275c1.382,0.063,1.684-2.091,0.303-2.137c-3.526-0.118-7.055-0.122-10.58-0.249
					c-2.886-0.104-6.437-0.474-8.612-2.603c-2.112-2.067-1.721-5.173-2.215-7.839c-0.283-1.53-0.983-2.85-1.622-4.25
					c-0.598-1.309-0.913-2.72-0.814-4.164c0.203-2.954,1.458-5.769,2.682-8.423c1.451-3.148,3.26-6.143,5.261-8.97
					c1.988-2.808,4.203-5.456,6.619-7.905c2.232-2.263,4.672-4.756,7.598-6.102c1.427-0.656,2.962-0.868,4.471-1.25
					c1.572-0.398,2.987-1.029,4.349-1.908c2.827-1.826,5.306-4.214,7.861-6.389c1.313-1.117,2.672-2.196,4.026-3.263
					c1.029-0.811,2.114-1.574,3.323-2.093c1.162-0.499,2.471-0.719,3.691-0.287c1.501,0.532,2.639,1.923,3.737,3.014
					c1.106,1.1,2.291,2.048,3.752,2.629c1.389,0.553,2.874,0.846,4.35,1.056c3.18,0.453,6.339,0.676,9.298,2.045
					c2.672,1.237,5.13,3.496,6.008,6.379c0.39,1.28,0.521,2.674,0.276,3.993c-0.246,1.328-0.614,2.604,0.421,3.716
					c1.12,1.204,2.797,2.052,4.198,2.884c1.52,0.903,3.067,1.768,4.526,2.769c1.457,1,2.835,2.13,3.983,3.48
					c1.102,1.296,2.011,2.772,2.84,4.254c1.777,3.178,3.519,6.377,5.261,9.576c0.764,2.422,1.719,4.763,3.198,6.883
					c0.507,0.727,1.074,1.409,1.695,2.037c0.046,0.083,0.09,0.166,0.136,0.249c0.888,1.594,1.777,3.187,2.665,4.781
					c0.06,0.107,0.139,0.184,0.219,0.257c-0.387,0.224-0.764,0.458-1.119,0.712c-0.039-0.048-0.067-0.1-0.122-0.143
					c-4.716-3.667-9.413-7.355-14.093-11.068c-2.34-1.857-4.679-3.714-7.003-5.591c-1.126-0.91-2.298-1.8-3.23-2.917
					c-0.882-1.058-1.468-2.326-2.373-3.36c-3.189-3.646-8.658-4.104-13.149-3.538c-2.455,0.309-4.897,0.854-7.294,1.465
					c-2.462,0.628-4.905,1.406-7.121,2.671c-2.684,1.531-4.829,3.778-6.876,6.058c-2.097,2.336-3.993,4.923-5.179,7.847
					c-0.352,0.867,0.965,1.424,1.336,0.566c1.076-2.484,2.663-4.662,4.426-6.7c1.804-2.085,3.648-4.242,5.901-5.857
					c2.011-1.442,4.338-2.369,6.689-3.094c2.304-0.711,4.669-1.324,7.05-1.711c4.307-0.7,10.26-0.821,13.173,3.098
					c0.795,1.07,1.334,2.294,2.254,3.275c0.87,0.928,1.848,1.748,2.841,2.541c2.243,1.791,4.491,3.575,6.726,5.377
					c4.974,4.01,9.93,8.038,14.865,12.097c-0.737,0.778-1.287,1.714-1.504,2.917c-0.212,1.174-0.144,2.363-0.094,3.548
					c0.05,1.17,0.146,2.341,0.588,3.439c0.544,1.35,1.509,2.496,2.41,3.621c0.951,1.187,1.802,2.454,2.377,3.868
					c0.248,0.609,1.135,0.221,0.933-0.391c-0.731-2.214-1.662-4.169-3.05-6.046c-0.668-0.902-1.262-1.834-1.545-2.932
					c-0.27-1.046-0.372-2.161-0.406-3.238c-0.034-1.087,0.071-2.216,0.635-3.17c0.649-1.097,1.792-1.8,2.914-2.335
					c1.779-0.848,3.772-1.639,5.778-1.574c1.208,0.039,2.259,0.506,3.305,1.076c1.006,0.548,2.287,1.569,3.494,1.386
					c0.558-0.085,0.683-0.743,0.298-1.098c-0.432-0.398-1.024-0.57-1.538-0.843c-0.419-0.222-0.825-0.466-1.233-0.709
					c4.294-4.393,8.602-8.768,13.191-12.855c2.335-2.079,4.705-4.117,7.111-6.114c2.212-1.836,4.423-3.702,6.766-5.371
					c1.181-0.842,2.409-1.605,3.728-2.212c1.313-0.604,2.672-0.792,4.025-1.233c0.691-0.225,0.513-1.325-0.18-1.397
					c-1.246-0.129-2.577,0.327-3.726,0.781c-1.208,0.479-2.344,1.129-3.427,1.843c-2.374,1.565-4.528,3.469-6.697,5.298
					c-4.972,4.193-9.788,8.565-14.539,13.006c-1.27,1.188-2.535,2.376-3.787,3.577c0.156-2.297-0.203-4.692-0.544-6.919
					c-0.43-2.81-1.031-5.591-1.481-8.398c-0.848-5.285-1.228-11.051,1.322-15.951c2.796-5.373,8.37-8.867,10.369-14.721
					c1.896-5.552,0.454-11.727,2.708-17.188c1.229-2.978,3.549-5.055,6.602-6.037c2.781-0.895,5.833-0.853,8.712-0.607
					c0.242,0.021,0.436-0.056,0.585-0.179c0.176,0.242,0.355,0.479,0.516,0.743c0.916,1.501,1.781,2.937,3.045,4.181
					c1.252,1.233,2.689,2.237,4.184,3.152c2.473,1.514,5.316,3.417,8.315,3.479c2.886,0.059,4.793-2.033,7.107-3.396
					c0.499-0.294,1.044-0.534,1.616-0.635c0.324-0.057,0.849-0.155,1.142,0.052c0.285,0.201,0.344,0.618,0.411,0.936
					c0.31,1.485,0.179,3.084,0.323,4.592c0.158,1.656,0.424,3.319,1.225,4.799c0.868,1.604,2.164,2.901,3.449,4.173
					c2.72,2.695,4.735,5.983,5.565,9.745c0.211,0.956,1.728,0.777,1.524-0.196c-0.679-3.238-2.096-6.349-4.284-8.85
					c-2.202-2.519-5.452-4.302-6.082-7.844c-0.282-1.583-0.129-3.185-0.082-4.78c0.041-1.369,0.339-3.092-0.915-4.037
					c-1.231-0.927-3.033-0.506-4.279,0.155c-1.202,0.638-2.185,1.555-3.253,2.382c-1.151,0.892-2.405,1.558-3.907,1.42
					c-1.439-0.132-2.769-0.78-3.997-1.504c-2.975-1.754-6.037-3.884-8.088-6.706c-1.077-1.482-1.785-3.153-3.149-4.42
					c-1.252-1.162-2.827-1.921-4.393-2.562c-1.744-0.714-3.562-1.301-5.192-2.264c-1.516-0.895-2.827-2.067-4.044-3.329
					c-0.777-0.979-1.595-1.926-2.467-2.82c-0.527-0.705-1.004-1.444-1.346-2.249c-0.741-1.744-1.008-3.692-1.527-5.51
					c-0.952-3.341-2.725-6.282-5.35-8.527c-0.864-2.466-2.662-4.629-4.211-6.664c-1.606-2.11-3.229-4.209-4.877-6.286
					c3.689-0.37,7.468-0.523,11.156-0.131c3.849,0.408,7.59,1.187,11.256,2.436c7.427,2.529,14.533,6.135,20.988,10.592
					c6.749,4.66,12.85,10.318,17.501,17.103c4.368,6.372,7.249,13.617,9.211,21.059c2.185,8.284,3.416,16.788,4.604,25.261
					c0.128,0.912,1.161,1.039,1.696,0.584c-0.039,0.088-0.083,0.172-0.095,0.284c-0.654,6.071-4.377,11.932-8.901,15.911
					c-4.684,4.12-10.437,6.762-16.513,8.049c-3.381,0.716-6.83,1.082-10.278,1.275c-0.905,0.051-0.727,1.467,0.18,1.401
					c12.494-0.905,26.024-5.68,33.358-16.419c2.045-2.995,3.351-6.413,4.158-9.933c0.042-0.182,0.023-0.338-0.024-0.479
					c0.099-0.102,0.182-0.231,0.24-0.397c4.359-1.108,8.046-3.805,11.098-7.065c3.294-3.519,5.671-7.856,7.325-12.361
					c1.848-5.034,3.041-10.202,4.075-15.455c1.029-5.227,1.722-10.806,4.231-15.58c1.415-2.691,3.571-4.842,6.05-6.567
					c2.133-1.485,4.471-2.567,6.811-3.661c0.515,0.458,1.392,0.489,1.684-0.288c1.876-0.367,3.721-0.965,5.461-1.715
					c2.514-1.083,4.53-2.741,6.362-4.751c1.833-2.009,3.478-4.174,5.535-5.969c1.789-1.561,3.833-2.811,5.98-3.817
					c4.275-2.002,9.026-3.086,13.753-2.981c5.579,0.123,10.858,1.992,16.006,3.985c3.144,1.218,6.26,2.51,9.357,3.844
					c1.594,0.687,3.182,1.39,4.768,2.095c1.475,0.656,2.938,1.43,4.503,1.836c-0.44,2.715-2.29,5.026-3.774,7.263
					c-1.659,2.5-2.845,5.1-3.544,8.025c-0.728,3.046-1.158,6.144-1.707,9.224c-0.562,3.15-1.347,6.262-2.433,9.274
					c-2.202,6.108-5.234,11.814-9.473,16.755c-4.103,4.782-9.348,8.521-14.843,11.532c-6.14,3.364-12.791,5.697-19.545,7.476
					c-0.071,0.019-0.126,0.053-0.173,0.094c-2.511-1.051-5.09-1.929-7.735-2.632c-4.323-1.148-8.782-1.685-13.21-2.255
					c-4.037-0.52-9.627-0.971-11.609,3.503c-0.5,1.128,1.248,1.861,1.758,0.745c0.699-1.529,2.348-2.651,3.934-3.102
					c1.747-0.497,3.721-0.107,5.466,0.208c3.965,0.717,7.932,1.472,11.846,2.435c7.655,1.883,15.143,4.882,21.605,9.445
					c2.768,1.954,6.143,5.422,3.603,8.936c-0.338,0.467-0.1,0.97,0.282,1.203c1.059,2.107,2.042,4.306,3.309,6.297
					c0.521,0.819,0.923,1.635,1.021,2.616c0.119,1.19-0.266,2.408-0.645,3.521c-0.715,2.099-1.392,4.233-2.483,6.175
					c-0.982,1.748-2.706,3.282-2.346,5.475c0.27,1.647,1.688,2.836,1.949,4.456c0.136,0.843-0.173,1.705-0.351,2.519
					c-0.211,0.961-0.253,1.921,0.122,2.849c0.377,0.932,1.02,1.78,1.534,2.637c0.635,1.059,1.286,2.125,1.858,3.219
					c0.36,0.689,0.592,1.428,0.434,2.112c-0.033,0-0.059-0.013-0.094-0.009c-8.64,0.994-16.94-3.283-22.769-9.386
					c-3.123-3.27-4.893-7.308-6.118-11.603c-1.29-4.524-2.373-9.272-5.142-13.17c-3.447-4.853-8.338-8.121-13.407-11.075
					c-0.965-0.562-1.658,1.061-0.682,1.609c4.607,2.587,9.751,5.142,13.082,9.384c3.131,3.989,3.937,9.011,5.241,13.769
					c1.199,4.374,3.033,8.29,5.835,11.866c2.597,3.314,6.249,5.903,10.043,7.668c3.882,1.806,8.039,2.656,12.281,2.688
					c-0.038,0.025-0.079,0.048-0.116,0.075c-0.431,0.315-0.848,0.645-1.289,0.946c-2.95,2.017-6.467,3.598-10.121,3.163
					c-2.006-0.239-3.992-1.309-6.04-1.049c-2.184,0.278-4.324,0.764-6.527,0.95c-2.18,0.184-4.364,0.173-6.518-0.25
					c-2.154-0.424-4.204-1.227-6.209-2.104c-4.429-1.939-8.553-4.462-12.559-7.152c-2.192-1.471-4.429-2.908-6.452-4.611
					c-2.024-1.703-3.641-3.693-4.899-6.017c-1.228-2.267-2.247-4.639-3.359-6.963c-1.215-2.538-2.431-5.075-3.646-7.613
					c-0.464-0.969-2.003-0.34-1.55,0.65c2.083,4.548,4.005,9.231,6.391,13.631c1.126,2.077,2.433,4.082,4.09,5.776
					c1.728,1.767,3.722,3.22,5.75,4.62c4.086,2.819,8.189,5.733,12.598,8.03c4.117,2.145,8.488,3.647,13.179,3.554
					c2.301-0.046,4.555-0.436,6.819-0.811c1.167-0.193,2.21-0.262,3.385-0.143c1.139,0.115,2.199,0.448,3.296,0.76
					c3.823,1.087,7.759,0.237,11.164-1.7c1.704-0.969,3.351-2.094,4.462-3.727c0.013-0.02,0.023-0.039,0.037-0.059
					C377.718,274.676,377.893,274.023,377.688,273.536z M196.303,223.548c-2.475-2.744-5.717-4.584-8.778-6.585
					c-0.739-0.483-1.474-0.972-2.184-1.496c-0.607-0.447-1.312-0.845-1.264-1.681c0.035-0.604,0.224-1.195,0.278-1.8
					c0.066-0.737,0.046-1.491-0.064-2.222c-0.104-0.687-0.288-1.364-0.538-2.019c2.389,2.644,4.891,5.198,7.401,7.72
					c2.86,2.873,6.06,5.657,8.037,9.254c1.274,2.317,2.079,4.826,2.779,7.375C200.255,229.143,198.601,226.097,196.303,223.548z
					 M245.436,172.608c1.614,0.805,3.328,1.395,4.92,2.246c0.697,0.372,1.3,0.81,1.851,1.299c-2.435-0.167-5.02-0.12-7.416,0.479
					c-0.422-1.92-1.058-3.793-1.908-5.562C243.702,171.644,244.551,172.167,245.436,172.608z M233.929,156.637
					c0.388,1.562,0.363,3.191,0.805,4.745c-0.712-0.553-1.429-1.1-2.111-1.689c-1.325-1.144-2.54-2.495-2.727-4.307
					c-0.176-1.71,0.331-3.411,0.234-5.126c-0.011-0.186-0.052-0.363-0.074-0.545C231.862,151.683,233.293,154.077,233.929,156.637z
					 M220.975,137.542c1.242,1.639,2.47,3.287,3.697,4.936c1.042,1.401,2.135,2.794,2.934,4.354c0.784,1.531,1.159,3.101,1.006,4.82
					c-0.144,1.618-0.488,3.237-0.057,4.841c0.901,3.356,4.289,4.868,6.74,6.93c0.202,0.17,0.393,0.352,0.588,0.529
					c0.39,0.642,0.83,1.254,1.314,1.823c0.731,0.858,1.516,1.699,2.342,2.503c0.776,1.197,1.451,2.464,2.02,3.788
					c0.704,1.636,1.253,3.326,1.602,5.073c-1.761,0.669-3.357,1.7-4.616,3.251c-3.928,4.838-3.044,11.446-4.147,17.176
					c-0.594,3.091-1.988,5.786-3.855,8.295c-1.879,2.524-4.079,4.794-5.869,7.387c-3.329,4.819-4.034,10.49-3.44,16.21
					c0.342,3.294,1.052,6.532,1.617,9.792c0.284,1.637,0.535,3.28,0.686,4.935c0.151,1.658,0.12,3.318,0.209,4.977
					c-0.805,0.789-1.617,1.572-2.406,2.381c-0.76-0.335-1.557-0.571-2.396-0.627c-1.964-0.132-3.827,0.504-5.58,1.334
					c-0.02-0.058-0.021-0.113-0.055-0.174c-0.593-1.055-1.187-2.11-1.78-3.166c-0.017-0.088-0.063-0.172-0.139-0.248
					c-2.145-3.82-4.305-7.632-6.48-11.435c-0.744-2.884-1.283-5.846-2.067-8.544c-1.065-3.666-2.906-6.852-5.48-9.666
					c-2.739-2.994-5.742-5.752-8.555-8.679c-1.427-1.485-2.847-2.979-4.23-4.505c-1.328-1.466-2.639-3.006-3.579-4.757
					c-1.71-3.187-2.146-6.873-2.454-10.423c-0.154-1.773-0.439-3.661,0.326-5.335c0.749-1.639,2.103-2.918,2.982-4.484
					c1.515-2.698,0.843-5.549,0.075-8.362c-0.356-1.304-0.737-2.649-0.713-4.014c0.032-1.804,0.94-3.323,1.979-4.737
					c1.067-1.452,2.188-2.86,2.83-4.564c0.599-1.591,0.869-3.27,0.953-4.963c0.176-3.561-0.233-7.114,0.006-10.679
					c0.245-3.653,0.869-7.306,2.164-10.741c1.263-3.35,3.179-6.477,5.855-8.884c1.515-1.362,3.226-2.471,4.949-3.547
					c0.7-0.437,1.404-0.956,2.185-1.239c0.859-0.311,1.645-0.081,2.398,0.382c1.665,1.023,3.056,2.481,4.432,3.851
					c1.486,1.479,2.9,3.033,4.282,4.609c1.954,2.228,3.816,4.533,5.634,6.872c0.049,0.186,0.172,0.324,0.325,0.417
					C219.801,135.999,220.39,136.769,220.975,137.542z M297.185,211.46c0.064-0.15,0.103-0.318,0.075-0.521
					c-2.168-15.409-4.598-31.303-13.059-44.711c-8.763-13.889-23.484-23.631-38.894-28.731c-4.027-1.333-8.223-2.429-12.401-3.163
					c-4.037-0.709-8.09-1.134-12.183-0.929c0.765-2.262,2.666-4.06,4.854-4.999c2.701-1.159,5.531-1.225,8.416-1.187
					c1.346,0.018,2.677-0.021,3.965-0.454c1.399-0.471,2.395-1.545,3.351-2.615c1.928-2.157,4.283-3.334,7.128-3.812
					c2.885-0.484,5.828-0.187,8.691,0.308c2.988,0.517,6.084,0.422,9.08,0.022c2.766-0.369,5.513-0.702,8.295-0.31
					c2.484,0.35,5.061,1.124,7.225,2.419c4.495,2.69,7.628,6.912,9.272,11.846c0.938,2.816,1.844,5.464,4.014,7.594
					c2.206,2.166,5.061,3.496,7.407,5.489c3.93,3.338,6.228,8.406,4.498,13.496c-1.685,4.958-5.665,8.73-7.749,13.499
					c-1.052,2.408-1.436,5.082-0.98,7.677c0.47,2.674,1.548,5.186,1.965,7.877c0.862,5.572-0.267,11.245-1.663,16.636
					c-0.271,1.048-0.564,2.09-0.855,3.133c-0.094,0.159-0.132,0.34-0.143,0.523c-0.035,0.127-0.068,0.254-0.104,0.381
					c-0.043,0.152-0.053,0.293-0.04,0.421C297.289,211.38,297.238,211.418,297.185,211.46z M326.024,157.064
					c-3.448,4.145-4.652,9.594-5.499,14.786c-1.658,10.167-2.68,21.082-9.308,29.444c-1.641,2.07-3.547,3.923-5.757,5.381
					c-1.719,1.134-3.747,1.96-5.772,2.513c1.268-4.877,2.359-9.824,2.141-14.895c-0.237-5.501-2.939-11.029-1.493-16.558
					c1.366-5.225,5.468-9.132,7.544-14.031c1.033-2.437,1.521-5.093,1.055-7.722c-0.455-2.567-1.654-4.997-3.186-7.091
					c-1.697-2.319-3.898-4.021-6.241-5.641c-1.371-0.949-2.791-1.934-3.905-3.188c-1.013-1.14-1.672-2.476-2.22-3.888
					c-1.025-2.644-1.884-5.244-3.549-7.577c-1.498-2.1-3.373-3.879-5.456-5.392c-1.386-1.006-2.882-1.887-4.443-2.628
					c0.065-0.12,0.107-0.262,0.111-0.435c0.093-3.939,0.757-8.42,3.742-11.285c2.239-2.149,5.45-2.919,8.414-3.408
					c3.095-0.511,6.274-0.623,9.244-1.719c3.425-1.264,5.895-3.911,7.971-6.817c1.265-1.771,2.405-3.632,3.704-5.378
					c1.038-1.396,2.269-3.119,3.873-3.961c0.3,0.607,0.563,1.216,0.724,1.904c0.231,0.986,0.383,1.987,0.647,2.965
					c0.638,2.364,2.282,3.718,4.598,4.382c1.315,0.377,2.695,0.521,3.988,0.976c1.286,0.453,2.537,1.186,3.598,2.039
					c2.179,1.753,3.876,4.128,5.23,6.555c1.365,2.448,2.353,5.064,3.319,7.688c0.783,2.125,2.308,4.774,0.735,6.866
					c-0.772,1.027-1.816,1.813-2.585,2.848c-0.676,0.91-1.102,1.976-1.229,3.104c-0.272,2.41,0.724,4.704,1.852,6.765
					c0.713,1.304,1.454,2.621,1.93,4.035c0.435,1.294,0.566,2.686,0.472,4.044c-0.165,2.377-0.867,4.683-1.628,6.936
					C334.063,150.703,329.256,153.179,326.024,157.064z"/>
				<path style="fill:#DDB76C;" d="M412.643,141.673c-4,1.095-7.92,2.512-11.784,4.014c-3.789,1.473-7.532,3.04-11.209,4.776
					c-7.428,3.508-14.584,7.57-21.555,11.91c-7.04,4.382-13.892,9.062-20.778,13.679c-7.734,5.186-15.407,10.42-22.92,15.926
					c-4.213,3.087-8.367,6.263-12.472,9.491c-2.011,1.582-4.065,3.123-6.123,4.645c-1.044,0.772-2.099,1.534-3.154,2.292
					c-1.104,0.792-2.265,1.463-3.33,2.308c-0.822,0.653,0.153,1.924,0.997,1.293c0.931-0.696,1.736-1.497,2.628-2.237
					c0.923-0.765,1.869-1.503,2.809-2.248c1.809-1.433,3.681-2.79,5.535-4.165c3.754-2.782,7.646-5.393,11.472-8.075
					c7.571-5.305,15.133-10.628,22.573-16.116c6.668-4.919,13.496-9.622,20.466-14.101c6.918-4.445,14-8.65,21.353-12.338
					c4.108-2.06,8.299-3.952,12.579-5.626c4.322-1.691,8.776-2.958,13.269-4.103C413.965,142.752,413.62,141.405,412.643,141.673z"
					/>
				<path style="fill:#DDB76C;" d="M304.965,136.652c0.393-6.551,1.338-13.115,2.616-19.55c1.287-6.478,2.967-12.899,5.051-19.167
					c1.167-3.508,2.456-6.976,3.873-10.39c0.387-0.932-1.053-1.542-1.442-0.611c-5.115,12.24-8.397,25.119-9.776,38.312
					c-0.394,3.77-0.53,7.575-0.626,11.364C304.657,136.802,304.953,136.851,304.965,136.652z"/>
				<path style="fill:#DDB76C;" d="M276.496,257.366c4.279-5.695,8.26-11.597,12.197-17.531c0.453-0.683-0.558-1.47-1.013-0.782
					c-6.876,10.395-13.663,20.899-22.08,30.139c-7.436,8.164-16.154,15.197-26.334,19.625c-2.851,1.24-5.796,2.255-8.797,3.066
					c-1.575,0.426-3.166,0.792-4.76,1.136c-1.357,0.293-2.748,0.507-4.074,0.919c0.065,0.038,0.133,0.072,0.198,0.111
					c0.038,0.014,0.077,0.022,0.115,0.039c0.339,0.16,0.672,0.335,1.002,0.512c0.396,0.212,0.837,0.409,1.204,0.667
					c0.505-0.118,1.009-0.24,1.512-0.358c1.421-0.332,2.836-0.687,4.244-1.072c2.773-0.76,5.483-1.694,8.118-2.845
					c4.999-2.184,9.633-5.049,14.017-8.28C261.57,275.694,269.42,266.783,276.496,257.366z"/>
				<path style="fill:#DDB76C;" d="M218.612,251.888c-0.152-8.326-0.797-16.636-0.961-24.962c-0.021-1.046-0.036-2.097-0.04-3.148
					c1.004-2.71,2.254-5.332,3.77-7.789c2.376-3.851,5.651-7.011,8.101-10.797c1.321-2.042,2.283-4.258,2.579-6.686
					c0.266-2.181,0.084-4.566-0.542-6.676c-0.171-0.578-1.069-0.403-1.137,0.146c-0.956,7.799-6.093,14.271-9.567,21.082
					c-0.898,1.761-1.726,3.595-2.314,5.484c-0.053,0.17-0.095,0.346-0.145,0.519c-0.231,0.484-0.467,0.965-0.68,1.456
					c0.069-1.601,0.195-3.198,0.466-4.776c0.102-0.592,0.247-1.167,0.385-1.745c1.387-2.495,3.363-4.77,4.85-7.134
					c1.211-1.925,2.136-3.966,2.314-6.257c0.16-2.06-0.306-4.094-1.561-5.758c-0.324-0.43-0.917-0.1-0.903,0.374
					c0.107,3.464-1.228,6.72-2.621,9.823c-1.405,3.128-2.932,6.211-3.743,9.561c-0.21,0.867-0.363,1.746-0.475,2.631
					c-0.268,1.026-0.411,2.089-0.368,3.2c0.005,0.125,0.057,0.212,0.128,0.271c-0.027,1.242-0.005,2.486,0.045,3.721
					c-1.463,4.405-2.297,9.018-2.457,13.673c-0.144,4.184,0.138,8.379,0.996,12.478c-4.264-6.111-4.149-13.811-4.046-21.014
					c0.034-2.345-0.05-4.746-0.091-7.156c0.967-2.048,2.176-3.963,3.203-5.982c1.236-2.431,2.17-5.098,2.262-7.843
					c0.018-0.544-0.582-0.818-0.961-0.406c-1.67,1.82-3.068,3.823-4.213,5.956c0.114-0.987,0.254-1.968,0.46-2.936
					c0.831-1.442,1.872-2.789,2.831-4.025c1.062-1.369,2.142-2.727,3.176-4.116c0.588-0.791,1.173-1.583,1.752-2.38
					c0.572-0.787,1.099-1.66,1.745-2.386c0.277-0.312-0.122-0.662-0.441-0.573c-3.524,0.978-6.258,3.722-8.053,6.817
					c-0.018,0.031-0.032,0.063-0.05,0.094c0.139-1.415,0.185-2.842,0.175-4.278c-0.009-1.423-0.08-2.861-0.245-4.275
					c-0.135-1.153-0.428-2.376-1.298-3.205c-0.628-0.599-1.87-1.196-2.683-0.588c-0.344,0.257-0.367,0.649-0.321,1.05
					c0.081,0.719,0.268,1.443,0.422,2.149c0.434,1.99,0.935,3.953,1.294,5.949c-0.858-1.948-2.182-3.653-3.891-5.007
					c-0.465-0.368-1.104,0.155-0.894,0.687c2.517,6.363,3.892,13.1,4.685,19.882c-0.991,2.432-1.688,4.993-2.045,7.645
					c-0.566,4.198-0.358,8.393,0.511,12.482c0.011,0.059,0.02,0.118,0.031,0.177c0.348,1.737,0.765,3.46,1.255,5.162
					c-0.102-0.257-0.216-0.507-0.311-0.769c-1.325-3.677-2.032-7.534-2.515-11.403c-0.558-4.466-0.906-8.929-0.932-13.431
					c-0.012-1.954-0.078-3.903-0.525-5.813c-0.449-1.917-1.284-3.585-2.275-5.273c-1.173-1.999-2.142-3.937-2.272-6.292
					c-0.125-2.253,0.284-4.52,0.842-6.695c0.15-0.586-0.588-0.819-0.989-0.576c-2.268,1.375-3.324,4.399-3.434,6.916
					c-0.094,2.156,0.318,4.26,0.996,6.3c0.696,2.093,1.803,4.022,2.781,5.992c0.478,0.964,0.912,1.947,1.374,2.919
					c0.486,1.023,1.012,1.991,1.394,3.066c0.831,2.342,1.256,4.787,1.035,7.272c-0.016,0.177,0.246,0.216,0.274,0.039
					c0.039-0.242,0.046-0.486,0.069-0.728c0.336,5.928,0.83,11.862,2.747,17.498c1.052,3.093,2.573,6.17,4.856,8.528
					c0.499,0.925,1.073,1.811,1.738,2.645c0.513,0.643,1.405,0.213,1.522-0.402c0.644,0.119,1.388-0.397,1.099-1.284
					c-1.234-3.788-1.971-7.797-1.978-11.788c-0.007-3.844,0.536-7.676,1.538-11.386c0.096,2.053,0.175,4.107,0.253,6.161
					c0.012,0.972,0.038,1.944,0.065,2.912c0.068,2.484,0.192,4.966,0.256,7.45c0.067,2.587,0.105,5.17,0.37,7.745
					C217.371,252.936,218.627,252.731,218.612,251.888z M222.317,212.322c1.616-2.743,3.386-5.414,4.955-8.129
					c1.628-2.815,3.006-5.791,3.761-8.942c0.09,1.01,0.056,2.03-0.116,3.093c-0.368,2.281-1.314,4.401-2.599,6.31
					c-1.345,2-2.967,3.79-4.487,5.655C223.301,210.96,222.806,211.639,222.317,212.322z M221.304,205.879
					c1.186-2.941,2.275-5.939,2.743-9.075c1.52,3.754-0.698,8.218-2.741,11.366c-0.642,0.989-1.327,1.987-1.985,3.006
					C219.906,209.391,220.594,207.64,221.304,205.879z M210.211,199.363c-0.281-1.203-0.623-2.391-0.925-3.589
					c-0.145-0.576-0.285-1.153-0.394-1.737c-0.047-0.251-0.225-0.726-0.029-0.909c0.226-0.211,0.711,0.086,0.925,0.234
					c1.004,0.695,1.197,1.995,1.297,3.119c0.111,1.249,0.153,2.505,0.165,3.758c0.017,1.721-0.066,3.442-0.171,5.162
					C210.96,203.373,210.675,201.353,210.211,199.363z M206.973,199.374c1.215,1.611,2.04,3.517,2.35,5.509
					c0.218,1.406,0.214,2.828,0.254,4.247C208.995,205.816,208.109,202.552,206.973,199.374z M218.222,200.18
					c-0.681,0.78-1.356,1.566-2.028,2.354c-1.192,1.398-2.383,2.828-3.446,4.328c-0.049,0.069-0.093,0.14-0.141,0.21
					c0.027-0.065,0.048-0.131,0.075-0.196c1.362-3.227,3.461-6.026,6.475-7.722C218.841,199.497,218.522,199.836,218.222,200.18z
					 M204.338,218.764c-0.509-1.942-1.182-3.921-2.009-5.747c-1.708-3.772-3.559-7.764-3.949-11.937
					c-0.125-1.336-0.055-2.687,0.266-3.993c0.237-0.967,0.654-1.79,1.202-2.536c-0.414,3.275-0.697,6.49,0.673,9.665
					c0.84,1.947,2.044,3.729,2.762,5.731c0.69,1.925,0.904,4.011,1.059,6.039c0.099,1.301,0.177,2.611,0.25,3.924
					C204.515,219.526,204.437,219.143,204.338,218.764z M209.672,239.816c-0.73-2.662-1.219-5.383-1.418-8.111
					c0.009-0.445,0.015-0.889,0.048-1.335c0.146-1.947,0.636-3.822,1.311-5.639c0.008,1.089,0.008,2.178-0.019,3.267
					C209.494,231.939,209.333,235.883,209.672,239.816z M214.74,210.127c-0.379,1.95-1.068,3.813-1.882,5.641
					c-0.732,1.645-1.504,3.268-2.281,4.89c-0.006-1.35,0.024-2.697,0.099-4.037C211.708,214.29,213.058,212.052,214.74,210.127z
					 M209.562,219.548c0.004,1.057,0.016,2.114,0.031,3.172c-0.514,1.078-0.962,2.178-1.318,3.304
					C208.471,223.831,208.889,221.663,209.562,219.548z"/>
				<path style="fill:#DDB76C;" d="M308.822,200.46c1.067-1.335,2.058-2.737,3.009-4.144c1.355-2.004,2.695-4.025,4.221-5.906
					c1.611-1.986,3.433-3.806,4.915-5.895c1.311-1.849,2.264-3.856,2.997-5.952c0.059,0.055,0.148,0.07,0.215-0.016
					c1.51-1.944,2.465-4.272,3.356-6.552c0.919-2.354,1.608-4.822,2.182-7.281c0.574-2.458,0.995-4.949,1.241-7.461
					c0.249-2.545,0.214-5.042,0.157-7.594c-0.01-0.465-0.742-0.663-0.987-0.268c-2.011,3.235-3.169,6.694-3.879,10.423
					c-0.73,3.833-0.986,7.734-1.588,11.586c-0.59,3.774-1.524,7.551-3.49,10.865c-1.237,2.086-2.89,3.859-4.498,5.658
					c-1.612,1.803-3.045,3.726-4.404,5.725c-0.518,0.762-1.029,1.537-1.543,2.313c0.564-1.679,1.02-3.388,1.547-5.095
					c0.781-2.523,1.447-5.063,1.98-7.651c0.541-2.628,1.002-5.271,1.445-7.917c0.031-0.188,0.058-0.378,0.089-0.566
					c0.946-1.749,1.847-3.521,2.652-5.344c0.844-1.91,1.515-3.84,2.04-5.802c0.523-1.268,1.033-2.539,1.519-3.813
					c1.618-4.241,2.936-8.681,3.734-13.152c0.458-2.568,0.798-5.138,0.928-7.743c0.034-0.694-0.816-0.924-1.15-0.319
					c-0.625,1.135-1.379,2.186-1.964,3.346c-0.588,1.164-1.083,2.372-1.456,3.623c-0.696,2.335-1.001,4.764-1.162,7.188
					c-0.163,2.461-0.249,4.932-0.671,7.367c-0.421,2.428-1.128,4.806-2.016,7.103c-0.606,1.57-1.306,3.098-2.053,4.602
					c0.119-1.201,0.172-2.408,0.107-3.616c-0.06-1.106-0.273-2.161-0.55-3.199c0.315-2.431,0.611-4.866,0.967-7.292
					c0.187-1.275,0.403-2.546,0.667-3.808c0.275-1.316,0.747-2.643,0.924-3.971c0.071-0.533-0.617-0.814-0.95-0.401
					c-0.663,0.824-1.396,1.577-1.961,2.477c-0.536,0.854-1.017,1.781-1.374,2.724c-0.324,0.857-0.554,1.741-0.73,2.635
					c-0.229-0.948-0.406-1.91-0.524-2.887c0.614-1.514,1.43-2.987,2.042-4.497c1.39-3.43,1.684-7.326,1.136-10.965
					c-0.084-0.558-0.792-0.605-1.036-0.142c-2.029,3.844-3.067,8.349-3.085,12.679c-0.005,1.237,0.068,2.478,0.213,3.709
					c-0.306,1.528-0.41,3.075-0.062,4.577c0.015,0.065,0.119,0.053,0.104-0.013c-0.277-1.234-0.182-2.397,0.094-3.525
					c0.09,0.576,0.196,1.148,0.325,1.716c0.135,0.592,0.297,1.176,0.474,1.755c-0.029,0.445-0.053,0.891-0.054,1.338
					c-0.011,4.304,0.786,8.561,0.625,12.87c-0.167,0.977-0.347,1.953-0.574,2.928c-0.123,0.525-0.259,1.04-0.397,1.553
					c-0.355,0.613-0.711,1.225-1.068,1.837c-2.587,4.439-5.012,8.924-7.125,13.611c-2.243,4.973-4.033,10.118-5.363,15.405
					c-0.118,0.186-0.236,0.373-0.354,0.56c-0.198,0.314-0.155,0.641-0.002,0.895c-0.015,0.38,0.371,0.543,0.694,0.437
					c0.175,0.007,0.341-0.073,0.485-0.224c0.167,0.034,0.35,0.003,0.527-0.128c2.101-1.557,4.021-3.421,5.571-5.531
					C307.044,203.781,307.983,202.143,308.822,200.46z M327.085,162.531c0.603-3.565,1.334-7.284,2.91-10.587
					c-0.06,1.754-0.219,3.519-0.401,5.246c-0.255,2.421-0.639,4.832-1.167,7.209c-0.537,2.416-1.263,4.762-2.046,7.107
					c-0.469,1.405-1.027,2.777-1.548,4.162C325.93,171.367,326.359,166.821,327.085,162.531z M321.753,155.632
					c0.158-2.709,0.165-5.488,0.724-8.154c0.305-1.456,0.771-2.873,1.385-4.228c0.361-0.796,0.784-1.618,1.28-2.382
					c-0.751,5.001-1.591,9.992-2.799,14.906c-0.339,1.377-0.69,2.759-1.072,4.133C321.502,158.505,321.669,157.084,321.753,155.632z
					 M313.155,146.452c0.399-1.929,1.03-3.708,1.852-5.443c0.116,3.198-0.48,6.294-1.532,9.364c-0.278,0.811-0.57,1.656-0.835,2.517
					C312.534,150.736,312.72,148.557,313.155,146.452z M314.414,160.995c-0.036-0.096-0.066-0.194-0.101-0.291
					c0.016-1.279,0.107-2.555,0.319-3.823c0.286-1.711,0.855-3.702,1.957-5.188c-0.097,0.4-0.187,0.798-0.278,1.18
					c-0.27,1.134-0.485,2.283-0.677,3.432c-0.329,1.973-0.557,3.957-0.758,5.946C314.724,161.834,314.571,161.416,314.414,160.995z
					 M314.84,171.197c0.152-0.893,0.284-1.788,0.416-2.684c0.117,1.854-0.021,3.723-0.261,5.587
					c-0.066,0.122-0.128,0.246-0.195,0.368C314.851,173.375,314.866,172.285,314.84,171.197z M304.641,195.841
					c1.596-3.934,3.536-7.688,5.613-11.379c0.037,0.074,0.17,0.099,0.224,0c0.523-0.945,1.001-1.926,1.443-2.923
					c0.283-0.486,0.565-0.972,0.848-1.458c-1.206,6.162-3.696,12.037-6.702,17.551c-1.553,2.849-3.257,5.617-4.986,8.367
					C302.117,202.562,303.293,199.164,304.641,195.841z M311.471,188.892c1.034-2.705,1.886-5.486,2.492-8.319
					c-0.388,2.396-0.801,4.787-1.289,7.165c-0.557,2.715-1.34,5.261-2.497,7.782c-0.725,1.578-1.487,3.11-2.341,4.593
					c-1.208,1.597-2.529,3.091-4.055,4.377C306.706,199.473,309.401,194.311,311.471,188.892z M301.873,207.707
					c0.322-0.532,0.64-1.067,0.959-1.602c0.57-0.373,1.118-0.772,1.643-1.197C303.655,205.889,302.794,206.828,301.873,207.707z"/>
				<path style="fill:#DDB76C;" d="M231.049,335.236c-7.516-4.66-10.381-13.051-11.899-21.452c-0.09-1.266-0.222-2.528-0.402-3.782
					c2.142,3.223,3.026,7.238,4.097,10.901c1.348,4.608,3.437,9.428,7.876,11.797c0.42,0.224,1.04-0.222,0.921-0.698
					c-1.198-4.773-3.25-9.229-5.745-13.456c-1.537-2.605-3.268-5.066-5.036-7.504c-0.683-1.33-1.528-2.569-2.566-3.694
					c-0.095-0.489-0.186-0.979-0.294-1.467c-0.107-0.485-0.828-0.409-0.777,0.1c0.004,0.043,0.009,0.085,0.013,0.128
					c-0.137-0.102-0.296-0.114-0.442-0.066c0.082-0.186,0.148-0.378,0.235-0.563c0.122-0.26,0.002-0.486-0.193-0.6
					c0.192-0.495-0.562-0.97-1.009-0.513c-3.443,3.526-7.066,7.284-8.397,12.173c-0.514,1.888-0.704,3.895-0.387,5.833
					c0.303,1.851,0.898,3.821,2.001,5.354c0.346,0.481,1.02,0.106,0.995-0.412c-0.301-6.257,1.199-12.862,4.472-18.287
					c-0.501,1.546-0.838,3.149-1.164,4.739c-0.438,2.136-0.863,4.276-1.213,6.429c-0.406,2.5-0.682,5.039-0.761,7.579
					c-0.55,0.102-1.106,0.169-1.658,0.202c-2.193,0.131-4.392-0.185-6.538-0.61c-0.719-0.143-0.953,0.78-0.506,1.2
					c2.382,2.234,5.667,3.325,8.774,2.906c0.04,0.594,0.056,1.19,0.13,1.782c0.297,2.394,0.901,4.746,1.843,6.969
					c0.17,0.402,0.818,0.555,1.077,0.141c2.059-3.297,2.031-7.135,1.539-10.857c0.02-0.016,0.042-0.029,0.062-0.046
					c1.374-1.13,2.266-2.576,2.798-4.189c0.959,3.374,2.509,6.58,5.337,8.796c1.876,1.47,4.123,2.322,6.517,2.269
					C231.268,336.325,231.49,335.509,231.049,335.236z M215.799,327.893c-0.004-0.026-0.008-0.052-0.012-0.078
					c-0.034-0.206-0.066-0.412-0.1-0.618c0.776-0.606,1.388-1.319,1.874-2.103c-0.287,0.81-0.69,1.576-1.263,2.264
					C216.142,327.545,215.973,327.722,215.799,327.893z M212.575,328.749c0.677-0.204,1.332-0.477,1.96-0.823
					c0.047,0.293,0.092,0.587,0.135,0.881c-0.642,0.431-1.344,0.767-2.082,1.002C212.58,329.455,212.573,329.102,212.575,328.749z
					 M214.791,313.583c0.051-0.459,0.13-0.91,0.203-1.364c0.296-1.292,0.653-2.565,1.132-3.798c0.157,0.388,0.299,0.781,0.439,1.175
					c0.271,3.774,0.707,7.538,1.373,11.262c-0.351,1.856-1.09,3.664-2.468,4.972C214.831,321.766,214.333,317.729,214.791,313.583z
					 M224.598,318.897c2.195,3.677,4.075,7.58,5.289,11.694c-3.504-2.676-4.986-7.349-6.15-11.449
					c-0.295-1.038-0.593-2.084-0.916-3.12C223.426,316.974,224.021,317.931,224.598,318.897z M208.789,325.345
					c-0.12-0.217-0.253-0.424-0.355-0.653c-0.384-0.868-0.504-1.813-0.547-2.756c-0.085-1.861,0.209-3.743,0.841-5.494
					c0.995-2.755,2.651-5.177,4.513-7.436c-1.28,2.038-2.348,4.212-3.08,6.476C209.129,318.671,208.669,322.008,208.789,325.345z
					 M213.422,320.053c0.152,2.236,0.543,4.442,0.915,6.65c-0.545,0.33-1.13,0.584-1.738,0.775
					C212.691,324.997,213.007,322.509,213.422,320.053z M210.54,330.198c-1.647,0.092-3.26-0.31-4.704-1.057
					c1.841,0.212,3.725,0.239,5.52-0.098c0,0.356-0.016,0.712-0.006,1.068C211.082,330.153,210.812,330.182,210.54,330.198z
					 M215.052,332.52c0.091,2.03-0.136,4.094-0.96,5.946c-0.84-2.351-1.279-4.776-1.44-7.232c0.764-0.206,1.505-0.516,2.212-0.926
					C214.947,331.043,215.018,331.779,215.052,332.52z M221.273,328.184c-0.849-1.855-1.398-3.832-1.809-5.847
					c0.052-0.536,0.094-1.072,0.112-1.613c0.217,0.751,0.452,1.497,0.718,2.234c1.639,4.542,4.291,8.843,8.074,11.876
					C225.16,333.963,222.637,331.165,221.273,328.184z"/>
				<path style="fill:#DDB76C;" d="M411.427,146.922c-0.655-0.426-1.654-0.328-2.411-0.337c-0.871-0.01-1.741,0.013-2.61,0.075
					c-1.733,0.124-3.457,0.381-5.156,0.742c-3.405,0.723-6.72,1.853-9.96,3.114c-1.851,0.72-3.668,1.527-5.487,2.322
					c-0.279,0.122-0.101,0.549,0.183,0.437c6.323-2.477,12.814-5.149,19.658-5.652c0.969-0.071,1.942-0.102,2.914-0.077
					c0.455,0.012,0.91,0.036,1.364,0.062c0.484,0.027,0.959,0.133,1.422-0.048C411.591,147.464,411.663,147.076,411.427,146.922z"/>
				<path style="fill:#DDB76C;" d="M393.182,182.389c1.346-1.98,2.595-4.019,3.741-6.121c1.159-2.126,2.137-4.331,3.121-6.541
					c0.04-0.09-0.098-0.147-0.14-0.059c-0.925,1.973-2.021,3.859-3.127,5.735c-1.055,1.79-2.181,3.541-3.357,5.254
					c-2.389,3.478-5.039,6.787-7.917,9.873c-5.765,6.182-12.503,11.51-19.857,15.679c-2.032,1.152-4.113,2.216-6.238,3.186
					c-2.177,0.994-4.413,1.845-6.604,2.805c-0.534,0.234-0.19,0.953,0.34,0.81c4.104-1.106,8.046-3.056,11.767-5.084
					c3.751-2.045,7.339-4.383,10.726-6.987C382.398,195.742,388.387,189.443,393.182,182.389z"/>
				<path style="fill:#DDB76C;" d="M387.882,182.632c0.072-0.111-0.086-0.238-0.165-0.128c-3.8,5.355-8.473,10.163-13.577,14.283
					c-5.117,4.13-10.79,7.572-16.848,10.136c-3.426,1.45-6.98,2.508-10.484,3.741c-0.376,0.132-0.207,0.726,0.18,0.671
					c3.304-0.464,6.512-1.573,9.592-2.83c3.074-1.255,6.05-2.737,8.916-4.412c5.739-3.355,11.05-7.54,15.527-12.464
					C383.574,188.824,385.831,185.819,387.882,182.632z"/>
				<path style="fill:#DDB76C;" d="M400.507,151.352c-7.21,3.766-14.493,7.391-21.687,11.187
					c-7.203,3.801-14.381,7.651-21.546,11.523c-4.032,2.179-8.036,4.408-12.044,6.63c-0.359,0.199-0.126,0.794,0.252,0.6
					c7.24-3.716,14.463-7.463,21.642-11.294c7.19-3.836,14.371-7.684,21.501-11.63c4.01-2.22,8.004-4.473,12.029-6.666
					C400.865,151.587,400.725,151.238,400.507,151.352z"/>
				<path style="fill:#DDB76C;" d="M375.031,129.667c-1.318,0.58-2.524,1.496-3.706,2.312c-1.166,0.805-2.31,1.642-3.431,2.508
					c-2.292,1.77-4.488,3.664-6.577,5.669c-4.108,3.943-7.854,8.35-10.927,13.15c-1.744,2.723-3.199,5.58-4.673,8.453
					c-0.026,0.051,0.055,0.085,0.082,0.035c1.332-2.551,2.964-4.951,4.617-7.303c1.63-2.318,3.335-4.583,5.167-6.746
					c3.64-4.298,7.645-8.267,12.056-11.774c1.254-0.997,2.538-1.956,3.849-2.875c1.301-0.913,2.74-1.694,3.965-2.704
					C375.814,130.096,375.483,129.468,375.031,129.667z"/>
				<path style="fill:#DDB76C;" d="M308.583,110.926c1.023-3.382,2.492-6.628,4.307-9.659c0.886-1.48,1.854-2.908,2.915-4.269
					c0.53-0.679,1.078-1.347,1.655-1.987c0.619-0.687,1.327-1.292,1.936-1.986c0.346-0.395-0.249-0.993-0.651-0.652
					c-0.685,0.58-1.259,1.297-1.849,1.97c-0.609,0.695-1.207,1.397-1.776,2.126c-1.082,1.388-2.081,2.846-2.969,4.365
					c-1.82,3.113-3.152,6.467-4.05,9.957C308.029,111.066,308.5,111.2,308.583,110.926z"/>
				<path style="fill:#DDB76C;" d="M332.513,125.603c0.998-2.918,1.773-5.915,2.34-8.945c0.324-1.733,0.546-3.485,0.743-5.237
					c0.045-0.396-0.555-0.482-0.613-0.087c-0.575,3.861-1.508,7.697-2.666,11.422c-1.16,3.732-2.718,7.28-4.166,10.901
					c-0.16,0.401,0.445,0.802,0.682,0.399C330.392,131.408,331.521,128.504,332.513,125.603z"/>
				<path style="fill:#DDB76C;" d="M332.04,115.834c0.749-3.203,1.183-6.481,1.256-9.77c0.041-1.841,0.034-3.72-0.251-5.542
					c-0.066-0.421-0.641-0.322-0.639,0.082c0.006,1.61,0.082,3.215,0.033,4.826c-0.05,1.614-0.177,3.227-0.373,4.83
					c-0.392,3.197-1.104,6.349-2.087,9.416c-0.555,1.732-1.19,3.43-1.824,5.134c-0.133,0.357,0.358,0.551,0.536,0.227
					C330.259,122.174,331.299,119.004,332.04,115.834z"/>
				<path style="fill:#DDB76C;" d="M297.076,209.675c0.243-3.399-0.134-6.875-0.546-10.249c-0.416-3.413-1.009-6.798-1.769-10.15
					c-1.516-6.691-3.662-13.239-6.44-19.512c-1.561-3.524-3.304-6.974-5.215-10.321c-0.152-0.267-0.601-0.088-0.449,0.188
					c3.297,5.979,5.936,12.265,8.047,18.755c2.102,6.464,3.547,13.131,4.427,19.869c0.246,1.883,0.445,3.772,0.598,5.665
					c0.155,1.917,0.243,3.84,0.476,5.749C296.264,210.149,297.04,210.18,297.076,209.675z"/>
				<path style="fill:#DDB76C;" d="M300.816,203.13c0.286-4.627-0.233-9.227-1.179-13.757c-0.945-4.528-2.344-8.958-4.19-13.199
					c-1.047-2.405-2.231-4.753-3.498-7.049c-0.166-0.301-0.667-0.101-0.501,0.21c4.284,8.05,6.848,17.107,7.903,26.145
					c0.297,2.542,0.543,5.095,0.751,7.645C300.134,203.524,300.791,203.539,300.816,203.13z"/>
				<path style="fill:#DDB76C;" d="M306.75,164.771c1.407-3.183,1.524-6.796,0.58-10.128c-1.023-3.609-3.503-6.773-6.701-8.717
					c-0.828-0.503-1.7-0.938-2.614-1.263c-0.924-0.329-1.898-0.52-2.853-0.735c-1.957-0.44-3.946-0.934-5.305-2.518
					c-1.248-1.455-1.87-3.322-2.322-5.156c-0.473-1.918-0.701-3.885-1.064-5.824c-0.746-3.984-2.471-8.344-6.783-9.485
					c-0.364-0.096-0.541,0.531-0.178,0.64c3.684,1.108,5.225,5.206,5.848,8.63c0.662,3.638,0.826,7.416,3.085,10.515
					c1.045,1.434,2.438,2.58,4.068,3.291c1.736,0.757,3.605,1.142,5.345,1.896c3.34,1.447,6.156,4.16,7.605,7.511
					c1.498,3.463,1.543,7.376,0.323,10.933C305.566,164.995,306.474,165.395,306.75,164.771z"/>
				<path style="fill:#DDB76C;" d="M244.611,125.358c0.159-1.101,0.415-2.22,1.035-3.163c0.58-0.882,1.324-1.35,2.324-1.633
					c0.527-0.149,0.234-0.877-0.232-0.865c-1.655,0.043-2.97,1.715-3.478,3.148c-0.673,1.899-0.465,3.96-0.976,5.892
					c-0.505,1.912-1.864,3.537-3.995,3.329c-0.857-0.084-1.657-0.385-2.439-0.73c-0.942-0.416-1.876-0.841-2.826-1.24
					c-2.421-1.015-4.868-1.994-7.327-2.917c-0.473-0.177-0.765,0.51-0.306,0.722c2.171,1.001,4.373,1.945,6.571,2.886
					c1.805,0.773,3.646,1.592,5.599,1.903c1.721,0.274,3.38-0.188,4.445-1.63C244.232,129.401,244.326,127.324,244.611,125.358z"/>
				<path style="fill:#DDB76C;" d="M289.098,151.931c-4.359-5.294-9.09-10.248-14.254-14.763
					c-5.159-4.511-10.698-8.586-16.561-12.133c-3.281-1.985-6.696-3.986-10.291-5.35c-0.315-0.119-0.631,0.344-0.313,0.536
					c2.907,1.754,5.945,3.292,8.866,5.027c2.903,1.725,5.743,3.564,8.508,5.502c5.582,3.914,10.868,8.252,15.76,13.001
					c2.778,2.696,5.453,5.481,7.965,8.427C288.946,152.375,289.265,152.133,289.098,151.931z"/>
				<path style="fill:#DDB76C;" d="M197.231,148.914c1.486-3.02,1.661-6.588,1.511-9.897c-0.157-3.449-0.692-6.876-0.477-10.338
					c0.232-3.733,1.715-7.801,5.206-9.65c0.395-0.209,0.154-0.833-0.274-0.653c-3.109,1.308-4.946,4.389-5.65,7.579
					c-0.763,3.461-0.14,6.96,0.276,10.418c0.405,3.375,0.779,6.936-0.617,10.141c-1.507,3.46-4.217,6.073-6.83,8.708
					c-1.567,1.579-3.125,3.165-4.661,4.774c-1.566,1.641-3.214,3.208-4.73,4.896c-0.215,0.24,0.153,0.607,0.399,0.399
					c1.529-1.29,2.996-2.669,4.456-4.036c1.438-1.347,2.922-2.648,4.364-3.992C192.865,154.784,195.602,152.225,197.231,148.914z"/>
				<path style="fill:#DDB76C;" d="M204.994,237.806c1.081-11.275-5.673-21.547-12.495-29.864c-1.947-2.374-4.012-4.646-5.97-7.01
					c-0.91-1.099-1.842-2.201-2.622-3.398c-0.405-0.622-0.765-1.267-1.047-1.954c-0.294-0.718-0.428-1.445-0.566-2.205
					c-0.44-2.428-0.108-5.111,1.688-6.923c1.757-1.773,4.47-2.919,4.929-5.648c0.468-2.782-1.263-5.36-3.086-7.262
					c-1.889-1.971-4.877-4.488-3.902-7.599c0.087-0.278-0.313-0.461-0.425-0.18c-0.91,2.284,0.156,4.785,1.674,6.536
					c1.805,2.082,4.703,3.657,5.38,6.511c0.316,1.33-0.078,2.631-1.075,3.566c-1.006,0.944-2.279,1.531-3.406,2.309
					c-1.081,0.746-1.958,1.652-2.531,2.846c-0.549,1.143-0.761,2.402-0.739,3.663c0.011,0.633,0.131,1.253,0.291,1.864
					c0.189,0.72,0.483,1.312,0.823,1.968c0.635,1.224,1.31,2.412,2.068,3.566c0.818,1.243,1.724,2.428,2.623,3.613
					c0.947,1.247,1.862,2.515,2.824,3.751c3.674,4.721,7.451,9.438,10.244,14.754c2.736,5.206,4.523,11.027,4.312,16.955
					C203.963,238.304,204.93,238.469,204.994,237.806z"/>
				<path style="fill:#DDB76C;" d="M247.347,212.048c-3.302,1.493-6.663,2.863-9.998,4.282c-3.305,1.407-6.593,2.854-9.884,4.292
					c-0.923,0.404-1.842,0.816-2.76,1.23c-0.919,0.416-1.917,0.771-2.76,1.329c-0.558,0.37,0.002,1.072,0.539,0.926
					c0.863-0.234,1.688-0.697,2.502-1.065c0.796-0.36,1.592-0.717,2.384-1.086c1.644-0.768,3.287-1.535,4.931-2.303
					c3.228-1.508,6.439-3.048,9.652-4.587c1.849-0.885,3.689-1.79,5.557-2.634C247.753,212.323,247.593,211.937,247.347,212.048z"/>
				<path style="fill:#DDB76C;" d="M236.885,212.741c-2.263,0.947-4.558,1.814-6.836,2.727c-1.123,0.45-2.242,0.91-3.361,1.368
					c-1.135,0.465-2.352,0.882-3.429,1.468c-0.614,0.334-0.254,1.232,0.423,1.009c1.134-0.375,2.237-0.962,3.324-1.457
					c1.132-0.516,2.263-1.035,3.39-1.561c2.224-1.04,4.428-2.122,6.667-3.128C237.334,213.045,237.161,212.626,236.885,212.741z"/>
				<path style="fill:#DDB76C;" d="M280.155,188.676c-1.314,0.02-2.679,0.399-3.975,0.623c-1.256,0.217-2.512,0.434-3.768,0.651
					c-2.579,0.445-5.156,0.896-7.733,1.351c-5.09,0.899-10.172,1.851-15.248,2.823c-2.903,0.556-5.8,1.145-8.7,1.717
					c-0.221,0.044-0.182,0.385,0.045,0.351c10.346-1.561,20.677-3.207,30.983-5.016c1.454-0.255,2.908-0.51,4.362-0.766
					c0.694-0.122,1.388-0.244,2.082-0.365c0.737-0.129,1.488-0.217,2.197-0.46C280.945,189.396,280.648,188.668,280.155,188.676z"/>
				<path style="fill:#DDB76C;" d="M259.431,189.41c-4.004,0.307-8.022,0.412-12.03,0.672c-1.986,0.129-3.972,0.247-5.957,0.391
					c-1.009,0.073-2.018,0.143-3.025,0.228c-0.98,0.083-1.962,0.109-2.905,0.408c-0.389,0.123-0.268,0.708,0.098,0.762
					c0.978,0.144,1.967-0.002,2.948-0.077c1.008-0.078,2.014-0.172,3.021-0.263c1.979-0.178,3.956-0.382,5.933-0.575
					c3.987-0.389,7.961-0.933,11.952-1.275C259.64,189.665,259.605,189.397,259.431,189.41z"/>
				<path style="fill:#DDB76C;" d="M290.616,220.943c1.288-2.063,2.353-4.254,3.178-6.541c0.091-0.251-0.284-0.414-0.384-0.163
					c-3.147,7.885-9.452,14.392-16.984,18.228c-2.145,1.092-4.361,1.99-6.667,2.684c-0.366,0.11-0.201,0.731,0.176,0.653
					C278.528,234.02,286.002,228.329,290.616,220.943z"/>
				<path style="fill:#DDB76C;" d="M317.777,227.684c1.437-2.158,2.669-4.449,3.603-6.869c0.131-0.338-0.368-0.55-0.518-0.22
					c-3.77,8.308-10.148,15.125-18.267,19.316c-2.27,1.172-4.656,2.136-7.089,2.912c-0.472,0.151-0.26,0.974,0.229,0.853
					C304.722,241.448,312.679,235.342,317.777,227.684z"/>
				<path style="fill:#DDB76C;" d="M323.218,223.825c0.624-2.232,0.957-4.521,1.037-6.836c0.009-0.271-0.405-0.34-0.426-0.061
					c-0.596,7.914-4.777,15.625-10.836,20.699c-1.709,1.431-3.586,2.711-5.555,3.756c-0.434,0.23-0.164,0.924,0.301,0.717
					C315.263,238.75,321.012,231.717,323.218,223.825z"/>
				<path style="fill:#DDB76C;" d="M303.336,228.634c1.28-1.799,2.462-3.944,2.727-6.171c0.036-0.3-0.372-0.406-0.501-0.139
					c-0.959,1.982-1.744,4.002-2.98,5.843c-1.239,1.845-2.66,3.51-4.439,4.856c-0.253,0.192,0.045,0.578,0.301,0.39
					C300.275,232.072,302.015,230.49,303.336,228.634z"/>
				<path style="fill:#DDB76C;" d="M290.009,208.882c-1.409-0.691-3.227-0.724-4.767-0.756c-1.615-0.034-3.217,0.116-4.804,0.415
					c-3.21,0.605-6.149,2.019-8.815,3.876c-0.186,0.13,0,0.42,0.193,0.297c2.641-1.68,5.725-2.691,8.798-3.213
					c1.516-0.257,3.063-0.374,4.6-0.347c0.775,0.014,1.549,0.066,2.318,0.162c0.768,0.096,1.553,0.252,2.329,0.24
					C290.213,209.549,290.324,209.036,290.009,208.882z"/>
				<path style="fill:#DDB76C;" d="M292.768,209.839c-7.376,0.016-14.698,1.529-21.415,4.602c-1.898,0.868-3.746,1.842-5.529,2.929
					c-0.234,0.143-0.021,0.49,0.219,0.363c6.418-3.404,13.456-5.71,20.654-6.716c2.017-0.282,4.045-0.495,6.079-0.578
					C293.162,210.423,293.156,209.838,292.768,209.839z"/>
				<path style="fill:#DDB76C;" d="M282.322,215.479c-3.208,0.982-6.397,2.005-9.523,3.229c-3.087,1.208-6.126,2.549-9.1,4.015
					c-1.712,0.844-3.406,1.726-5.084,2.637c-0.497,0.27-0.164,1.093,0.345,0.822c5.883-3.131,11.972-5.861,18.155-8.342
					c1.769-0.71,3.543-1.408,5.341-2.04C282.67,215.725,282.533,215.415,282.322,215.479z"/>
				<path style="fill:#DDB76C;" d="M373.729,231.224c-1.54-0.717-3.19-1.245-4.786-1.826c-1.574-0.573-3.147-1.15-4.729-1.704
					c-3.196-1.118-6.388-2.248-9.586-3.36c-1.837-0.639-3.674-1.275-5.508-1.923c-0.263-0.093-0.433,0.298-0.17,0.402
					c6.293,2.47,12.556,5.02,18.872,7.431c1.805,0.689,3.615,1.473,5.473,2.004C373.967,232.441,374.396,231.534,373.729,231.224z"
					/>
				<path style="fill:#DDB76C;" d="M375.196,234.817c-0.645-0.341-1.365-0.564-2.046-0.824c-0.687-0.262-1.375-0.524-2.062-0.786
					c-1.343-0.512-2.687-1.025-4.029-1.538c-2.717-1.039-5.437-2.07-8.145-3.131c-0.261-0.102-0.43,0.293-0.17,0.402
					c2.683,1.119,5.353,2.268,8.027,3.408c1.322,0.564,2.643,1.128,3.964,1.693c0.676,0.289,1.352,0.578,2.028,0.867
					c0.67,0.286,1.343,0.625,2.044,0.829C375.419,235.915,375.773,235.122,375.196,234.817z"/>
				<path style="fill:#DDB76C;" d="M373.815,258.109c-0.463-0.607-1.196-1.04-1.792-1.509c-0.629-0.495-1.249-1.001-1.863-1.514
					c-1.229-1.025-2.424-2.09-3.584-3.193c-2.353-2.238-4.63-4.568-6.738-7.039c-1.185-1.388-2.365-2.782-3.43-4.265
					c-0.151-0.21-0.455,0.031-0.315,0.243c1.802,2.739,3.664,5.393,5.787,7.896c2.103,2.479,4.457,4.744,6.926,6.856
					c0.681,0.583,1.374,1.151,2.078,1.705c0.701,0.553,1.468,1.307,2.315,1.617C373.678,259.083,374.143,258.538,373.815,258.109z"
					/>
				<path style="fill:#DDB76C;" d="M372.102,253.258c-3.61-2.95-7.31-5.79-10.974-8.673c-0.271-0.213-0.582,0.198-0.324,0.42
					c3.534,3.05,7.033,6.144,10.622,9.128C371.974,254.589,372.653,253.709,372.102,253.258z"/>
				<path style="fill:#DDB76C;" d="M376.908,272.283c-10.28-1.483-19.4-7.643-25.13-16.23c-1.591-2.385-3.069-4.957-4.045-7.661
					c-0.068-0.189-0.345-0.068-0.286,0.12c0.801,2.525,1.689,4.988,3.007,7.298c1.302,2.283,2.846,4.41,4.618,6.352
					c3.549,3.893,8.028,6.95,12.897,8.943c2.807,1.149,5.767,1.955,8.762,2.424C377.532,273.653,377.709,272.398,376.908,272.283z"
					/>
				<path style="fill:#DDB76C;" d="M344.324,247.363c-0.915-3.057-2.261-5.905-4.167-8.473c-1.886-2.541-4.199-4.813-6.81-6.602
					c-0.749-0.514-1.529-0.981-2.328-1.413c-0.777-0.42-1.609-0.913-2.473-1.117c-0.51-0.12-0.835,0.663-0.399,0.946
					c0.639,0.414,1.383,0.677,2.059,1.029c0.671,0.35,1.321,0.732,1.964,1.131c1.319,0.818,2.573,1.749,3.751,2.759
					c2.326,1.993,4.291,4.415,5.873,7.034c0.918,1.519,1.73,3.118,2.34,4.786C344.178,247.572,344.362,247.489,344.324,247.363z"/>
				<path style="fill:#DDB76C;" d="M375.447,274.114c-2.65,3.354-7.537,3.523-11.263,2.166c-4.652-1.693-8.27-5.224-12.339-7.908
					c-2.04-1.346-4.207-2.401-6.535-3.146c-2.15-0.687-4.381-1.16-6.594-1.594c-2.328-0.456-4.65-0.94-6.979-1.396
					c-2.283-0.447-4.577-0.881-6.823-1.491c-2.548-0.691-5.038-1.623-7.352-2.902c-1.157-0.64-2.256-1.393-3.261-2.253
					c-1.02-0.874-1.888-1.882-2.826-2.837c-0.19-0.194-0.576-0.032-0.444,0.258c0.952,2.103,2.898,3.778,4.769,5.063
					c2,1.374,4.231,2.407,6.527,3.181c2.329,0.785,4.73,1.352,7.154,1.745c2.398,0.389,4.823,0.563,7.221,0.941
					c2.405,0.379,4.808,0.878,7.1,1.712c2.336,0.85,4.555,1.907,6.634,3.275c4.247,2.795,7.914,6.543,12.71,8.441
					c2.344,0.927,4.89,1.367,7.392,0.917c2.316-0.416,4.452-1.529,5.939-3.378C377.003,274.256,375.967,273.456,375.447,274.114z"/>
				<path style="fill:#DDB76C;" d="M330.385,255.392c-2.234-2.549-4.474-5.094-6.712-7.64c-1.108-1.261-2.235-2.506-3.355-3.757
					c-0.56-0.625-1.115-1.256-1.682-1.875c-0.551-0.602-1.097-1.379-1.787-1.821c-0.359-0.23-0.988,0.102-0.737,0.566
					c0.396,0.732,1.089,1.322,1.656,1.924c0.554,0.589,1.118,1.168,1.678,1.751c1.19,1.24,2.374,2.486,3.576,3.714
					c2.382,2.435,4.762,4.872,7.148,7.304C330.289,255.68,330.503,255.526,330.385,255.392z"/>
				<path style="fill:#DDB76C;" d="M293.202,254.264c1.583-2.909,3.092-5.95,4.212-9.07c0.238-0.663-0.726-1.082-1.013-0.429
					c-1.193,2.713-2.348,5.42-3.703,8.06c-1.33,2.592-2.783,5.117-4.362,7.566c-3.176,4.925-6.821,9.51-10.828,13.784
					c-2.266,2.418-4.649,4.737-7.2,6.854c-0.094,0.078,0.02,0.227,0.116,0.15c4.659-3.716,9.003-7.739,12.84-12.31
					C287.059,264.348,290.381,259.448,293.202,254.264z"/>
				<path style="fill:#DDB76C;" d="M294.602,259.135c0.979-1.492,1.906-3.016,2.779-4.572c0.449-0.801,0.885-1.609,1.307-2.424
					c0.363-0.701,0.999-1.572,0.977-2.379c-0.009-0.337-0.446-0.461-0.684-0.283c-0.335,0.251-0.488,0.643-0.672,1.01
					c-0.205,0.411-0.411,0.821-0.622,1.229c-0.392,0.757-0.796,1.508-1.211,2.253c-0.888,1.592-1.827,3.157-2.815,4.689
					c-1.93,2.994-3.796,6.104-6.107,8.821c-0.098,0.115,0.087,0.256,0.185,0.143C290.128,264.853,292.589,262.204,294.602,259.135z"
					/>
				<path style="fill:#DDB76C;" d="M292.135,283.234c0.049-0.091-0.103-0.181-0.157-0.092c-4.001,6.635-8.892,12.789-14.39,18.246
					c-5.513,5.473-11.579,10.33-18.174,14.441c-3.708,2.311-7.567,4.341-11.521,6.197c-0.374,0.176-0.14,0.743,0.249,0.595
					c7.33-2.802,14.231-6.83,20.435-11.619c6.207-4.791,11.773-10.387,16.472-16.667
					C287.686,290.811,290.036,287.102,292.135,283.234z"/>
				<path style="fill:#DDB76C;" d="M276.19,297.412c-8.502,6.627-17.678,12.398-27.387,17.087c-1.353,0.653-2.71,1.296-4.081,1.911
					c-0.671,0.301-1.345,0.597-2.021,0.887c-0.747,0.321-1.428,0.691-2.135,1.093c-0.389,0.221-0.304,0.995,0.229,0.853
					c0.637-0.169,1.275-0.316,1.884-0.569c0.679-0.282,1.352-0.581,2.024-0.88c1.233-0.548,2.457-1.115,3.673-1.7
					c2.432-1.17,4.819-2.436,7.17-3.761c4.718-2.66,9.315-5.684,13.616-8.976c2.438-1.866,4.79-3.832,7.082-5.874
					C276.286,297.444,276.236,297.376,276.19,297.412z"/>
				<path style="fill:#DDB76C;" d="M276.037,253.581c0.118-0.177-0.135-0.386-0.262-0.209c-2.591,3.606-5.49,7.024-8.518,10.269
					c-3.048,3.266-6.285,6.333-9.704,9.21c-6.828,5.745-14.353,10.56-22.354,14.497c-2.233,1.099-4.498,2.114-6.791,3.078
					c-2.345,0.987-4.744,1.809-7.121,2.71c-0.278,0.105-0.172,0.595,0.132,0.522c2.159-0.514,4.281-1.239,6.374-1.974
					c2.127-0.746,4.217-1.59,6.281-2.496c4.123-1.812,8.093-3.967,11.91-6.355c7.645-4.782,14.614-10.568,20.725-17.199
					C270.167,261.882,273.216,257.827,276.037,253.581z"/>
				<path style="fill:#DDB76C;" d="M289.768,237.958c-2.589-0.38-5.279,0.445-7.509,1.729c-2.664,1.534-4.79,3.778-6.848,6.027
					c-1.981,2.166-3.96,4.275-6.222,6.152c-1.999,1.659-4.154,3.137-6.428,4.395c-4.52,2.501-9.487,4.381-14.604,5.162
					c-2.552,0.389-5.154,0.544-7.734,0.425c-2.663-0.122-5.298-0.578-7.891-1.182c-5.438-1.268-10.84-3.151-16.497-2.947
					c-0.71,0.026-1.419,0.084-2.125,0.16c-0.343,0.037-0.27,0.545,0.068,0.527c2.802-0.155,5.643,0.359,8.365,0.983
					c2.76,0.633,5.474,1.455,8.23,2.105c5.143,1.214,10.401,1.608,15.664,1.041c5.105-0.55,10.192-1.841,14.834-4.052
					c4.7-2.24,8.953-5.343,12.498-9.156c3.901-4.196,7.8-9.791,14.049-10.29c0.656-0.052,1.33,0.012,1.982,0.097
					C290.36,239.235,290.525,238.07,289.768,237.958z"/>
				<path style="fill:#DDB76C;" d="M245.705,266.917c-3.564,1.108-7.219,1.849-10.865,2.625c-3.607,0.768-7.242,1.404-10.885,1.977
					c-2.049,0.322-4.099,0.638-6.145,0.98c-0.331,0.055-0.259,0.516,0.065,0.508c3.724-0.096,7.427-0.585,11.086-1.264
					c3.635-0.674,7.226-1.547,10.754-2.653c2.031-0.637,4.045-1.324,6.065-1.993C245.901,267.058,245.825,266.88,245.705,266.917z"
					/>
				<path style="fill:#DDB76C;" d="M278.656,277.94c0.078-0.105-0.08-0.227-0.16-0.124c-1.596,2.05-3.462,3.911-5.332,5.71
					c-1.854,1.783-3.796,3.471-5.793,5.091c-3.983,3.231-8.333,6.013-12.911,8.323c-1.281,0.647-2.575,1.273-3.886,1.857
					c-1.336,0.595-2.708,1.107-4.04,1.709c-0.26,0.118-0.168,0.576,0.137,0.508c2.512-0.559,5.017-1.552,7.357-2.61
					c2.397-1.084,4.722-2.316,6.959-3.701c4.426-2.74,8.517-5.99,12.082-9.788C275.12,282.728,276.875,280.344,278.656,277.94z"/>
				<path style="fill:#DDB76C;" d="M165.62,228.086c-2.522-0.754-5.289-0.996-7.91-1.119c-2.714-0.128-5.428-0.079-8.136,0.143
					c-5.357,0.439-10.618,1.603-15.712,3.308c-2.911,0.974-5.742,2.176-8.492,3.536c-0.137,0.068-0.048,0.288,0.093,0.222
					c9.637-4.585,20.418-6.56,31.06-6.213c1.493,0.049,2.989,0.132,4.478,0.259c1.487,0.126,2.983,0.328,4.472,0.396
					C165.76,228.63,165.945,228.183,165.62,228.086z"/>
				<path style="fill:#DDB76C;" d="M169.593,226.663c-8.528-2.602-17.748-3.067-26.523-1.555c-4.501,0.776-8.894,1.959-13.122,3.699
					c-4.4,1.811-8.563,4.113-12.486,6.802c-2.216,1.519-4.328,3.152-6.31,4.967c-1.975,1.809-3.913,3.727-5.555,5.849
					c-0.378,0.488,0.347,1.029,0.75,0.579c1.587-1.772,3.154-3.549,4.877-5.194c1.7-1.623,3.495-3.19,5.362-4.619
					c3.728-2.855,7.799-5.217,12.107-7.081c8.206-3.55,17.156-5.112,26.079-4.795c4.933,0.175,9.808,0.957,14.581,2.206
					C169.842,227.648,170.079,226.811,169.593,226.663z"/>
				<path style="fill:#DDB76C;" d="M208.617,244.137c-1.417-2.381-3.381-4.451-5.282-6.451c-1.928-2.028-3.97-3.946-6.115-5.742
					c-4.233-3.543-8.869-6.599-13.79-9.101c-9.018-4.584-19.076-7.151-29.171-7.639c-5.546-0.268-11.097,0.137-16.562,1.113
					c-0.131,0.023-0.113,0.229,0.02,0.208c9.654-1.568,19.694-1.084,29.184,1.254c10.237,2.522,19.886,7.327,28.141,13.876
					c2.386,1.893,4.656,3.934,6.789,6.109c2.174,2.217,4.048,4.691,6.178,6.943C208.359,245.077,208.843,244.517,208.617,244.137z"
					/>
				<path style="fill:#DDB76C;" d="M207.699,243.361c-1.748-2.972-3.953-5.695-6.263-8.248c-2.313-2.557-4.813-4.941-7.464-7.145
					c-5.282-4.39-11.206-8.025-17.527-10.715c-5.843-2.487-12.03-4.155-18.33-4.953c-5.982-0.758-12.091-0.75-18.066,0.072
					c-5.969,0.821-11.805,2.469-17.341,4.843c-0.676,0.29-1.355,0.576-2.026,0.877c-0.133,0.06-0.047,0.268,0.088,0.21
					c5.47-2.37,11.323-3.847,17.21-4.715c5.859-0.864,11.814-1.028,17.709-0.456c6.148,0.597,12.204,2.011,17.966,4.24
					c6.316,2.443,12.266,5.815,17.622,9.958c5.378,4.159,10.137,9.117,14.08,14.655c0.487,0.685,0.998,1.352,1.496,2.029
					C207.272,244.583,208.038,243.936,207.699,243.361z"/>
				<path style="fill:#DDB76C;" d="M209.004,255.162c-5.036-2.656-10.394-4.666-15.91-6.066c-5.471-1.388-11.119-2.143-16.766-2.158
					c-3.216-0.009-6.395,0.288-9.587,0.654c-0.126,0.014-0.1,0.207,0.025,0.194c2.81-0.281,5.652-0.274,8.472-0.182
					c2.789,0.092,5.57,0.33,8.337,0.696c5.573,0.738,11.072,2.099,16.339,4.068c2.955,1.105,5.841,2.403,8.637,3.865
					C209.215,256.581,209.661,255.509,209.004,255.162z"/>
				<path style="fill:#DDB76C;" d="M194.852,246.902c-3.075-0.983-6.166-1.887-9.326-2.555c-3.195-0.676-6.428-1.164-9.681-1.463
					c-6.471-0.595-12.995-0.378-19.421,0.577c-3.63,0.54-7.22,1.322-10.749,2.329c-0.693,0.198-0.255,1.236,0.435,1.038
					c6.15-1.768,12.503-2.822,18.893-3.157c6.4-0.335,12.833-0.046,19.162,0.974c3.579,0.576,7.159,1.331,10.619,2.414
					C194.89,247.092,194.957,246.936,194.852,246.902z"/>
				<path style="fill:#DDB76C;" d="M174.704,238.994c-7.043-1.17-14.327-1.272-21.362-0.004c-0.965,0.174-1.927,0.369-2.882,0.593
					c-0.491,0.115-0.98,0.242-1.468,0.372c-0.494,0.132-1.02,0.215-1.433,0.533c-0.312,0.24-0.193,0.815,0.224,0.85
					c0.421,0.036,0.777-0.086,1.179-0.199c0.464-0.131,0.93-0.255,1.397-0.374c0.844-0.215,1.689-0.422,2.54-0.606
					c1.729-0.374,3.474-0.664,5.226-0.902c3.502-0.476,7.046-0.645,10.577-0.465c1.992,0.101,3.971,0.318,5.94,0.635
					C174.92,239.47,174.98,239.04,174.704,238.994z"/>
				<path style="fill:#DDB76C;" d="M215.841,302.747c0.095-0.307,0.01-0.655-0.381-0.793c-8.402-2.949-16.482-6.804-24.273-11.102
					c-7.849-4.33-15.452-9.1-22.952-14.007c-4.215-2.758-8.415-5.542-12.599-8.348c-0.087-0.058-0.187,0.068-0.1,0.13
					c7.29,5.237,14.558,10.513,22.092,15.399c7.528,4.883,15.274,9.436,23.357,13.344c3.951,1.911,7.996,3.626,12.101,5.178
					c-4.6,0.079-9.208-1.003-13.489-2.622c-5.586-2.112-10.715-5.223-15.692-8.487c-5.246-3.44-10.428-6.979-15.639-10.472
					c-5.262-3.527-10.529-7.044-15.804-10.553c-5.947-3.955-11.867-7.952-17.803-11.923c-0.266-0.177-0.571,0.213-0.305,0.395
					c10.605,7.275,21.202,14.563,31.815,21.827c5.245,3.59,10.475,7.202,15.744,10.757c5.021,3.387,10.185,6.652,15.798,8.979
					c5.618,2.329,11.592,3.595,17.687,3.278C215.943,303.701,216.058,303.123,215.841,302.747z"/>
				<path style="fill:#DDB76C;" d="M179.706,299.366c-2.98-1.517-5.882-3.183-8.814-4.788c-2.998-1.641-5.97-3.325-8.897-5.091
					c-5.708-3.443-11.313-7.081-16.857-10.78c-3.127-2.086-6.164-4.384-9.447-6.22c-0.362-0.203-0.626,0.349-0.348,0.595
					c2.516,2.224,5.412,4.049,8.209,5.898c2.816,1.862,5.656,3.683,8.542,5.432c5.708,3.459,11.548,6.707,17.41,9.896
					c3.34,1.817,6.756,3.469,10.15,5.179C179.73,299.527,179.781,299.405,179.706,299.366z"/>
				<path style="fill:#DDB76C;" d="M199.738,352.505c1.387-2.226,2.136-4.679,2.392-7.28c0.036-0.367-0.518-0.449-0.57-0.081
					c-0.616,4.392-3.288,8.58-6.824,11.206c-3.661,2.718-8.49,3.596-12.963,3.704c-2.516,0.061-5.036-0.047-7.551-0.125
					c-2.735-0.085-5.469-0.191-8.204-0.285c-2.735-0.094-5.47-0.191-8.206-0.273c-2.559-0.077-5.127-0.088-7.681-0.272
					c-5.441-0.392-11.416-1.874-14.469-6.837c-0.409-0.664-1.366,0.081-0.961,0.741c2.727,4.444,7.953,6.499,12.916,7.14
					c2.587,0.334,5.211,0.377,7.816,0.407c2.879,0.033,5.757,0.059,8.636,0.078c5.563,0.037,11.125,0.102,16.688,0.152
					c2.343,0.021,4.739,0.055,7.055-0.345c2.318-0.401,4.548-1.217,6.539-2.476C196.53,356.582,198.377,354.691,199.738,352.505z"/>
				<path style="fill:#DDB76C;" d="M216.429,307.207c0.254-0.354-0.26-0.752-0.535-0.413c-5.199,6.381-10.665,12.53-16.69,18.147
					c-6.004,5.597-12.477,10.664-19.239,15.312c-3.818,2.624-7.758,5.117-11.813,7.358c-0.14,0.077-0.049,0.309,0.098,0.233
					c7.356-3.784,14.43-8.053,20.992-13.105c6.562-5.053,12.691-10.655,18.313-16.737
					C210.725,314.57,213.706,311.005,216.429,307.207z"/>
				<path style="fill:#DDB76C;" d="M193.719,316.844c-6.331,1.298-12.628,2.819-18.743,4.929c-6.129,2.115-12.155,4.63-17.889,7.664
					c-3.224,1.707-6.39,3.536-9.467,5.496c-0.274,0.175,0.003,0.663,0.29,0.498c5.577-3.19,11.334-6.06,17.219-8.637
					c5.889-2.579,11.94-4.782,18.072-6.707c3.484-1.093,7.002-2.052,10.571-2.824C194.037,317.207,193.988,316.789,193.719,316.844z
					"/>
				<path style="fill:#DDB76C;" d="M182.491,315.579c-6.066,0.932-12.064,2.276-17.873,4.268
					c-5.826,1.997-11.435,4.626-16.756,7.722c-3,1.745-5.901,3.647-8.662,5.751c-0.491,0.374,0.081,1.107,0.583,0.756
					c4.987-3.493,10.19-6.664,15.685-9.296c5.474-2.623,11.16-4.8,16.985-6.51c3.317-0.974,6.676-1.768,10.086-2.339
					C182.76,315.893,182.717,315.544,182.491,315.579z"/>
				<path style="fill:#DDB76C;" d="M203.036,405.477c-1.055-1.597-1.264-3.417-0.823-5.258c0.218-0.909,0.593-1.824,1.034-2.647
					c0.527-0.982,1.365-1.747,2.198-2.467c2.024-1.752,4.29-3.197,6.197-5.089c1.694-1.68,2.98-3.678,3.829-5.908
					c1.728-4.538,1.557-9.58,0.633-14.275c-1.002-5.093-2.812-10.02-4.474-14.925c-2.072-6.115-4.194-12.211-6.467-18.253
					c-0.184-0.489-0.896-0.175-0.74,0.31c1.766,5.511,3.641,10.987,5.589,16.438c1.793,5.018,3.856,10.012,5.035,15.221
					c1.092,4.823,1.195,9.845-0.536,14.535c-0.847,2.293-2.16,4.392-3.931,6.086c-1.926,1.842-4.16,3.317-6.014,5.244
					c-1.565,1.627-2.945,3.618-3.453,5.843c-0.452,1.98-0.163,4.244,1.424,5.642C202.856,406.253,203.246,405.795,203.036,405.477z"
					/>
				<path style="fill:#DDB76C;" d="M217.509,358.818c0.339-1.835,0.394-3.752,0.534-5.611c0.139-1.843,0.264-3.687,0.382-5.531
					c0.24-3.76,0.438-7.525,0.594-11.289c0.088-2.121,0.148-4.242,0.25-6.362c0.014-0.293-0.434-0.363-0.457-0.065
					c-0.569,7.506-1.253,14.997-1.62,22.518c-0.102,2.095-0.319,4.242-0.196,6.338C217.013,359.117,217.457,359.095,217.509,358.818
					z"/>
				<path style="fill:#DDB76C;" d="M223.327,383.315c0.147-5.963,0.187-11.914,0.117-17.879c-0.069-5.917-0.181-11.83-0.361-17.745
					c-0.102-3.356-0.205-6.713-0.307-10.069c-0.006-0.183-0.324-0.188-0.326-0.002c-0.128,11.876-0.287,23.755-0.025,35.631
					c0.074,3.357,0.221,6.707,0.37,10.061C222.808,383.611,223.32,383.619,223.327,383.315z"/>
				<path style="fill:#DDB76C;" d="M238.342,387.118c0.539-1.892,0.596-3.908,0.231-5.838c-0.813-4.299-3.33-7.833-5.453-11.557
					c-1.031-1.808-1.973-3.702-2.56-5.705c-0.6-2.046-0.687-4.118-0.335-6.217c0.682-4.071,2.501-7.795,3.767-11.692
					c1.278-3.932,1.998-8.367,0.177-12.251c-0.187-0.399-0.809-0.145-0.635,0.266c1.459,3.469,0.824,7.363-0.297,10.834
					c-1.214,3.758-3.108,7.334-3.822,11.243c-0.733,4.014,0.132,7.929,1.841,11.583c1.753,3.747,4.051,7.254,5.407,11.18
					c0.734,2.126,1.06,4.343,0.723,6.579c-0.155,1.029-0.458,2.04-0.876,2.993c-0.458,1.047-1.11,1.883-1.914,2.685
					c-0.294,0.293,0.033,0.725,0.394,0.51C236.623,390.758,237.827,388.923,238.342,387.118z"/>
				<path style="fill:#DDB76C;" d="M184.608,371.586c0.115-0.158-0.12-0.34-0.24-0.185c-5.726,7.407-12.309,14.231-19.289,20.461
					c-1.97,1.758-3.99,3.462-6.046,5.119c-0.553,0.446,0.117,1.322,0.676,0.876c7.373-5.887,14.118-12.545,20.044-19.888
					C181.431,375.888,183.032,373.745,184.608,371.586z"/>
				<path style="fill:#DDB76C;" d="M176.779,376.42c-2.499,2.246-5.027,4.467-7.557,6.677c-1.267,1.107-2.513,2.235-3.757,3.367
					c-1.228,1.117-2.53,2.197-3.668,3.407c-0.478,0.509,0.329,1.3,0.86,0.86c1.292-1.069,2.459-2.322,3.663-3.489
					c1.169-1.133,2.334-2.269,3.48-3.425c2.375-2.396,4.761-4.789,7.169-7.152C177.107,376.53,176.93,376.285,176.779,376.42z"/>
				<path style="fill:#DDB76C;" d="M291.271,385.267c-6.584-7.255-13.281-14.405-20.106-21.434
					c-6.78-6.981-13.75-13.786-20.753-20.543c-3.953-3.814-7.945-7.587-11.962-11.333c-0.236-0.22-0.535,0.176-0.305,0.395
					c7.073,6.729,14.047,13.566,20.867,20.551c6.789,6.953,13.474,14.01,20.092,21.127c3.72,3.999,7.403,8.032,11.051,12.097
					C290.757,386.799,291.881,385.94,291.271,385.267z"/>
				<path style="fill:#DDB76C;" d="M293.803,382.559c-7.67-7.769-15.401-15.475-23.203-23.112c-2.238-2.19-4.475-4.38-6.689-6.593
					c-0.177-0.177-0.495,0.057-0.315,0.243c7.585,7.857,15.044,15.836,22.626,23.697c2.142,2.221,4.312,4.416,6.47,6.622
					c0.267,0.273,0.656,0.374,0.984,0.127C293.95,383.337,294.069,382.828,293.803,382.559z"/>
				<path style="fill:#DDB76C;" d="M298.757,381.942c-2.77-2.539-5.777-4.826-8.627-7.273c-2.857-2.452-5.685-4.937-8.503-7.434
					c-0.257-0.227-0.577,0.193-0.324,0.42c2.807,2.517,5.603,5.045,8.37,7.606c2.768,2.561,5.396,5.296,8.246,7.767
					C298.592,383.611,299.4,382.532,298.757,381.942z"/>
				<path style="fill:#DDB76C;" d="M290.827,357.591c-4.747-3.087-9.598-6.018-14.368-9.07c-4.775-3.056-9.503-6.187-14.172-9.404
					c-9.311-6.417-18.391-13.154-27.283-20.139c-5.01-3.935-9.946-7.962-14.808-12.077c-0.492-0.416-1.099,0.375-0.61,0.791
					c8.636,7.352,17.511,14.415,26.626,21.163c9.113,6.747,18.45,13.196,27.976,19.345c5.343,3.449,10.738,6.883,16.331,9.916
					C290.824,358.28,291.119,357.78,290.827,357.591z"/>
				<path style="fill:#DDB76C;" d="M280.84,391.405c-2.727-2.474-5.527-4.87-8.26-7.338c-2.731-2.467-5.439-4.962-8.125-7.478
					c-5.371-5.032-10.677-10.141-15.796-15.429c-2.887-2.982-5.735-6.003-8.544-9.059c-0.177-0.192-0.502,0.051-0.325,0.251
					c4.902,5.532,9.942,10.943,15.076,16.259c5.126,5.308,10.388,10.482,15.813,15.484c3.07,2.831,6.147,5.68,9.362,8.346
					C280.696,392.984,281.457,391.965,280.84,391.405z"/>
				<path style="fill:#DDB76C;" d="M274.49,391.099c-6.192-4.782-12.04-9.965-17.358-15.711c-1.514-1.636-3.005-3.292-4.422-5.012
					c-0.255-0.31-0.748,0.066-0.496,0.382c4.939,6.181,10.309,11.975,16.317,17.135c1.688,1.45,3.396,2.884,5.167,4.232
					C274.363,392.63,275.151,391.61,274.49,391.099z"/>
				<path style="fill:#DDB76C;" d="M211.114,173.475c-1.186-4.324-2.235-8.687-3.153-13.075c-0.923-4.41-1.713-8.85-2.365-13.308
					c-0.562-3.843-1.015-7.701-1.366-11.569c-0.014-3.564,0.629-7.141,1.939-10.446c0.236-0.596,0.494-1.183,0.773-1.76
					c0.145-0.3,0.299-0.595,0.466-0.883c0.166-0.287,0.362-0.564,0.494-0.869c0.163-0.379-0.307-0.639-0.551-0.313
					c-0.356,0.475-0.576,1.082-0.837,1.614c-0.254,0.517-0.49,1.042-0.709,1.574c-0.448,1.087-0.824,2.204-1.125,3.341
					c-0.36,1.357-0.606,2.746-0.745,4.145c-0.287-3.901-0.473-7.809-0.544-11.719c-0.01-0.558-0.019-1.116-0.028-1.673
					c-0.009-0.507-0.79-0.509-0.788,0c0.015,4.503,0.234,9.011,0.575,13.501c0.342,4.503,0.829,8.996,1.46,13.468
					c0.629,4.46,1.406,8.899,2.336,13.306c0.93,4.408,2.006,8.784,3.228,13.12c0.617,2.189,1.261,4.372,1.966,6.534
					c0.7,2.145,1.473,4.262,2.219,6.392c0.184,0.527,0.371,1.053,0.559,1.578c0.025,0.071,0.139,0.042,0.114-0.03
					C213.551,182.151,212.305,177.813,211.114,173.475z"/>
				<path style="fill:#DDB76C;" d="M208.634,177.338c-1.838-5.633-3.384-11.381-4.615-17.177c-1.234-5.807-2.149-11.684-2.7-17.595
					c-0.308-3.303-0.534-6.618-0.633-9.934c-0.006-0.197-0.306-0.186-0.305,0.01c0.021,5.965,0.412,11.923,1.229,17.834
					c0.812,5.874,1.991,11.689,3.559,17.408c0.886,3.234,1.941,6.417,3.095,9.565C208.347,177.681,208.711,177.576,208.634,177.338z
					"/>
				<path style="fill:#DDB76C;" d="M224.705,168.671c-1.613-4.857-2.999-9.794-4.232-14.761c-1.233-4.97-2.297-9.985-3.226-15.02
					c-0.263-1.424-0.512-2.852-0.746-4.281c-0.234-1.427-0.403-2.871-0.68-4.29c-0.077-0.396-0.746-0.318-0.708,0.091
					c0.119,1.269,0.353,2.535,0.555,3.793c0.206,1.281,0.424,2.559,0.652,3.836c0.454,2.536,0.949,5.067,1.512,7.581
					c1.119,4.997,2.422,9.952,3.893,14.857c0.832,2.776,1.727,5.533,2.648,8.281C224.444,168.966,224.774,168.88,224.705,168.671z"
					/>
				<path style="fill:#DDB76C;" d="M231.534,171.648c-0.758-3.463-1.399-6.958-1.889-10.469c-0.276-1.979-0.579-3.954-0.831-5.937
					c-0.034-0.271-0.452-0.288-0.437,0c0.183,3.559,0.636,7.074,1.285,10.578c0.649,3.5,1.507,6.965,2.526,10.375
					c0.575,1.926,1.225,3.826,1.88,5.725c0.034,0.099,0.191,0.06,0.159-0.042C233.149,178.527,232.288,175.088,231.534,171.648z"/>
				<path style="fill:#DDB76C;" d="M201.443,186.898c-0.273-0.895-0.61-1.773-0.901-2.663c-0.288-0.876-0.577-1.752-0.86-2.63
					c-0.572-1.773-1.108-3.559-1.592-5.358c-0.967-3.599-1.75-7.244-2.345-10.923c-0.339-2.095-0.651-4.194-0.865-6.306
					c-0.024-0.24-0.398-0.248-0.381,0c0.252,3.764,0.692,7.501,1.417,11.204c0.722,3.689,1.647,7.344,2.828,10.913
					c0.332,1.003,0.678,2.003,1.064,2.986c0.388,0.985,0.761,1.991,1.227,2.942C201.146,187.289,201.516,187.138,201.443,186.898z"
					/>
			</g>
			<path style="fill:#DDB76C;" d="M354.182,297.528c-4.648-2.833-9.732-4.83-14.974-6.255c-5.214-1.418-10.545-2.186-15.949-2.278
				c-10.927-0.186-21.83,2.51-31.294,8.007c-2.663,1.547-5.219,3.27-7.601,5.222c-2.37,1.943-4.475,4.144-6.422,6.508
				c-0.231,0.28,0.184,0.717,0.458,0.458c1.948-1.837,4.027-3.514,6.127-5.173c2.104-1.663,4.311-3.213,6.597-4.615
				c4.505-2.763,9.398-4.967,14.441-6.545c10.117-3.167,20.911-3.444,31.209-0.989c-6.063-0.876-12.305-0.58-18.254,0.883
				c-6.233,1.533-11.843,4.474-17.167,8.006c-5.868,3.893-11.446,8.177-17.618,11.599c-6.788,3.763-14.085,6.544-21.481,8.843
				c-0.756,0.235-0.411,1.567,0.365,1.36c6.588-1.751,12.941-4.369,18.954-7.567c6.097-3.242,11.789-7.066,17.339-11.164
				c5.303-3.916,10.867-7.532,17.183-9.572c5.509-1.779,11.395-2.425,17.162-1.977c5.46,0.424,10.834,1.826,15.805,4.118
				c0.488,0.24,0.974,0.484,1.456,0.735c-3.589-0.303-7.173-0.658-10.781-0.67c-4.65-0.016-9.298,0.535-13.737,1.959
				c-4.901,1.572-9.252,4.394-13.293,7.526c-4.415,3.422-8.647,7.088-12.938,10.663c-5.047,4.204-10.164,8.324-15.153,12.595
				c-0.714,0.611,0.157,1.764,0.898,1.164c4.465-3.612,8.813-7.361,13.231-11.03c4.308-3.578,8.588-7.19,12.918-10.741
				c3.949-3.238,8.101-6.352,12.86-8.296c4.291-1.753,8.879-2.376,13.485-2.527c5.216-0.171,10.489,0.229,15.642,1.012
				C354.307,298.887,354.806,297.908,354.182,297.528z"/>
			<path style="fill:#DDB76C;" d="M381.572,122.291c1.774-4.594,3.064-9.35,4.67-13.999c0.121-0.349-0.295-0.772-0.619-0.478
				c-0.275,0.25-0.559,0.489-0.835,0.736c-0.158-0.011-0.326,0.054-0.424,0.224c-0.062,0.107-0.13,0.212-0.192,0.319
				c-2.335,2.071-4.705,4.099-7.063,6.144c-1.428,1.238-2.842,2.496-4.244,3.768c1.553-2.746,3.034-5.54,4.496-8.327
				c1.166-2.224,2.307-4.46,3.504-6.667c0.191-0.353-0.262-0.8-0.615-0.617c-4.443,2.304-8.667,4.876-12.611,7.967
				c-3.441,2.696-6.676,5.625-9.581,8.884c0.026-1.785-0.026-3.563-0.138-5.309c-0.282-4.408-0.648-8.849-1.337-13.212
				c-0.079-0.5-0.689-0.524-0.914-0.126c-0.446,0.792-0.919,1.549-1.442,2.292c-0.516,0.733-1.132,1.391-1.654,2.121
				c-0.554,0.774-1.081,1.575-1.608,2.374c0.143-1.063,0.163-2.13,0.003-3.211c-0.215-1.454-0.597-3.058-1.501-4.245
				c-0.203-0.267-0.712-0.246-0.823,0.106c-0.135,0.43-0.51,0.826-0.76,1.196c-0.242,0.359-0.479,0.721-0.711,1.087
				c-0.417,0.66-0.817,1.332-1.205,2.01c-0.842,1.47-1.588,2.991-2.272,4.54c-1.359,3.079-2.403,6.265-2.971,9.585
				c-0.062,0.36,0.167,0.582,0.44,0.648c0.14,0.497,0.831,0.817,1.202,0.275c2.337-3.413,4.434-6.986,6.817-10.367
				c0.232,4.69-2.639,9.199-4.163,13.473c-0.912,2.558-1.238,5.209-1.291,7.912c-0.052,2.685,0.061,5.401-0.357,8.063
				c-0.233,1.485-0.624,2.96-1.261,4.325c-0.668,1.433-1.715,2.605-2.871,3.664c-0.346,0.317-0.034,1.027,0.448,0.77
				c0.338-0.18,0.635-0.369,0.919-0.581c-0.105,0.192-0.132,0.412-0.083,0.617c-0.188,0.281-0.368,0.567-0.562,0.845
				c-0.515,0.737,0.6,1.597,1.106,0.854c0.296-0.434,0.58-0.877,0.864-1.32c5.83-2.694,10.642-7.767,13.254-13.6
				c1.066-2.381,1.771-4.905,2.219-7.487c0.081-0.014,0.162-0.041,0.241-0.099c1.002-0.738,1.845-1.771,2.724-2.652
				c0.921-0.923,1.83-1.857,2.742-2.788c1.825-1.861,3.65-3.723,5.475-5.584c3.501-3.571,6.883-7.243,10.309-10.882
				c-1.834,3.168-3.703,6.317-5.521,9.494c-1.329,2.323-2.586,4.679-3.835,7.04c-0.271,0.253-0.547,0.501-0.817,0.754
				c-0.243,0.228-0.16,0.56,0.037,0.719c-0.536,1.015-1.074,2.029-1.617,3.041c-1.191,2.218-2.483,4.38-3.7,6.584
				c-0.364,0.66,0.713,1.104,1.076,0.456c0.149-0.265,0.296-0.531,0.445-0.796c0.082,0.272,0.35,0.468,0.691,0.332
				c0.591-0.236,1.053-0.696,1.523-1.113c0.499-0.443,0.993-0.891,1.481-1.346c0.956-0.89,1.89-1.804,2.797-2.744
				c1.793-1.858,3.506-3.798,5.129-5.806c3.172-3.923,5.958-8.122,8.295-12.591c0.004-0.003,0.007-0.007,0.011-0.01
				c-0.635,1.636-1.297,3.262-1.924,4.9c-0.823,2.147-1.576,4.319-2.393,6.468c-0.771,2.029-1.633,4.057-3.03,5.742
				c-0.58,0.7-1.244,1.32-1.992,1.836c-0.802,0.553-1.7,0.871-2.599,1.227c-0.62,0.245-0.326,1.124,0.292,1.087
				c1.931-0.115,3.709-1.478,4.992-2.831C379.752,126.377,380.783,124.335,381.572,122.291z M344.488,110.202
				c0.583-1.462,1.272-2.881,2.03-4.26c0.42-0.764,0.868-1.511,1.342-2.243c0.214-0.33,0.432-0.658,0.655-0.982
				c0.11-0.16,0.227-0.354,0.354-0.541c0.319,1.042,0.675,2.063,0.822,3.161c0.115,0.855,0.161,1.725,0.143,2.592
				c-0.335-0.289-0.975-0.12-0.859,0.415c0.035,0.159,0.052,0.317,0.079,0.476c-2.144,3.239-4.569,6.278-6.85,9.419
				C342.737,115.502,343.455,112.79,344.488,110.202z M344.111,141.82c0.768-2.747,0.793-5.564,0.759-8.395
				c-0.034-2.822-0.112-5.714,0.614-8.465c0.766-2.904,2.339-5.482,3.482-8.237c0.351-0.845,0.644-1.727,0.871-2.625
				c0.131,3.666-0.016,7.34-0.426,10.983c-0.307,2.725-0.8,5.423-1.53,8.067c-0.752,2.72-1.893,5.304-3.159,7.82
				c-0.275,0.548-0.572,1.083-0.858,1.624C343.953,142.336,344.039,142.08,344.111,141.82z M345.172,142.833
				c0.055-0.116,0.115-0.228,0.169-0.344c1.179-2.552,2.052-5.252,2.876-7.935c1.676-5.454,2.895-10.929,2.955-16.659
				c0.026-2.498-0.171-4.961-0.546-7.415c0.989-1.278,1.934-2.61,2.818-3.958c0.471-0.719,0.857-1.49,1.338-2.202
				c0.285-0.423,0.582-0.827,0.888-1.225c0.005,0.179,0.022,0.356,0.027,0.535c-2.143,5.24-2.24,10.95-2.481,16.535
				c-0.127,2.935-0.294,5.889-0.893,8.772c-0.677,3.253-2.02,6.33-3.742,9.162C347.566,139.765,346.411,141.332,345.172,142.833z
				 M349.468,140.837c-1.074,1.188-2.257,2.253-3.51,3.229c3.249-3.843,5.898-8.187,7.066-13.128
				c1.386-5.864,1.073-11.907,1.536-17.872c0.194-2.505,0.543-5.017,1.241-7.431c0.134,2.548,0.325,5.093,0.54,7.637
				c0.232,2.743,0.547,5.489,0.617,8.242c-0.043,0.051-0.089,0.101-0.132,0.153c-0.27,0.323-0.129,0.678,0.14,0.861
				c0,0.325,0.016,0.649,0.007,0.974C356.799,130.014,353.789,136.057,349.468,140.837z M367.793,115.479
				c-1.832,1.856-3.664,3.712-5.497,5.567c-0.916,0.928-1.837,1.851-2.745,2.786c-0.599,0.617-1.266,1.224-1.867,1.87
				c0.145-1.149,0.246-2.306,0.306-3.464c5.564-6.442,12.109-12.095,19.535-16.289C374.264,109.109,370.985,112.245,367.793,115.479
				z M375.652,121.433c-1.609,1.955-3.31,3.832-5.101,5.621c-0.884,0.883-1.784,1.752-2.701,2.601
				c-0.489,0.453-0.984,0.9-1.485,1.341c-0.237,0.209-0.494,0.413-0.733,0.634c1.778-3.189,3.548-6.377,5.426-9.513
				c0.059-0.099,0.115-0.2,0.174-0.299c3.885-3.383,7.666-6.878,11.493-10.324C380.583,114.953,378.235,118.295,375.652,121.433z"/>
			<path style="fill:#DDB76C;" d="M140.502,330.659c-4.384-0.386-8.677,0.048-12.937,1.135c-4.152,1.06-8.276,2.74-11.838,5.144
				c-0.504,0.34-0.995,0.697-1.473,1.069c2.187-2.294,4.403-4.56,6.684-6.762c3.341-3.226,6.786-6.345,10.21-9.483
				c2.742-2.07,5.485-4.141,8.306-6.1c4.609-3.2,9.485-6.049,14.761-7.992c0.296,0.083,0.528-0.042,0.648-0.241
				c0.087-0.03,0.171-0.066,0.259-0.096c0.997-0.344,0.361-1.831-0.632-1.507c-0.305,0.1-0.604,0.212-0.905,0.319
				c-1.366-0.545-2.861-0.856-4.291-1.04c-1.851-0.238-3.733-0.229-5.586-0.02c-4.032,0.456-7.836,1.9-11.394,3.809
				c-3.786,2.031-7.306,4.541-10.73,7.123c-3.654,2.755-7.298,5.487-11.142,7.975c-2.107,1.364-4.278,2.624-6.506,3.778
				c-0.544,0.282-1.087,0.568-1.63,0.852c3.034-2.744,5.815-5.747,8.69-8.665c3.861-3.919,7.78-7.883,12.338-10.999
				c3.883-2.654,8.256-4.75,12.89-5.672c2.969-0.591,6.038-0.676,8.979-0.102c0.142,0.081,0.288,0.156,0.429,0.239
				c0.227,0.135,0.458,0.113,0.651,0.019c1.462,0.373,2.888,0.898,4.239,1.639c0.621,0.341,1.031-0.666,0.427-1.008
				c-1.6-0.905-3.288-1.535-5.02-1.943c-5.149-2.9-11.184-3.923-17.025-3.023c-2.959,0.456-5.858,1.392-8.496,2.812
				c-3.139,1.691-5.666,4.117-8.256,6.529c-2.588,2.41-5.518,4.826-8.919,5.989c0.044-0.053,0.089-0.107,0.133-0.16
				c0.574-0.702,1.151-1.401,1.733-2.096c1.058-1.264,2.14-2.506,3.256-3.72c2.323-2.525,4.788-4.93,7.488-7.052
				c4.409-3.466,9.517-6.118,15.079-7.086c3.001-0.522,6.058-0.482,9.043,0.127c0.77,0.157,0.9-1.001,0.169-1.189
				c-5.447-1.401-11.259-0.389-16.354,1.81c-5.893,2.544-10.836,6.75-15.172,11.412c-1.345,1.446-2.634,2.943-3.912,4.449
				c-0.613,0.723-1.22,1.451-1.824,2.182c-0.663,0.803-1.281,1.713-2.096,2.364c-0.557,0.445-0.172,1.32,0.521,1.258
				c2.348-0.207,4.643-0.999,6.883-1.685c2.237-0.685,4.444-1.486,6.611-2.366c1.923-0.781,3.794-1.642,5.625-2.61
				c-2.603,2.154-5.041,4.518-7.405,6.912c-3.772,3.821-7.524,7.661-11.713,11.035c-4.438,3.575-9.386,6.682-14.927,8.188
				c-0.626,0.17-0.612,1.242-0.003,1.427c8.797,2.674,18.479,0.253,26.487-3.751c3.759-1.88,7.273-4.122,10.684-6.519
				c-3.382,3.094-6.622,6.347-9.765,9.67c-1.691,1.788-3.348,3.607-4.974,5.454c-0.328,0.373,0.142,0.845,0.545,0.709
				c5.046-1.7,10.131-3.272,15.146-5.067c2.483-0.889,4.906-1.927,7.414-2.746c1.235-0.403,2.465-0.818,3.696-1.23
				c1.296-0.434,2.69-0.784,3.882-1.458c0.332-0.188,0.252-0.761-0.187-0.696c-1.312,0.196-2.573,0.746-3.819,1.189
				c-1.222,0.434-2.446,0.863-3.665,1.307c-2.527,0.92-5.121,1.617-7.672,2.465c-4.038,1.341-8.026,2.814-12.025,4.258
				c5.82-5.265,13.161-8.904,21.029-9.569c2.38-0.201,4.828-0.161,7.197,0.137C141.075,331.884,141.233,330.723,140.502,330.659z
				 M120.838,308.944c-2.057,1.028-4.16,2.01-6.3,2.853c-2.173,0.856-4.395,1.563-6.658,2.143c-0.362,0.093-0.731,0.156-1.096,0.234
				c1.41-0.823,2.711-1.854,3.916-2.973c2.734-2.537,5.269-5.336,8.437-7.353c5.016-3.193,11.208-4.413,17.08-3.635
				c1.883,0.25,3.744,0.71,5.529,1.37c-5.678-0.187-11.511,1.728-16.236,4.745c-0.019,0.012-0.037,0.026-0.056,0.038
				C123.921,307.236,122.417,308.155,120.838,308.944z M101.899,336.742c-4.117,0.84-8.345,0.918-12.446,0.082
				c3.704-1.38,7.107-3.466,10.199-5.936c1.271-0.484,2.534-0.985,3.767-1.565c1.927-0.906,3.796-1.95,5.628-3.035
				c3.844-2.276,7.313-5.013,10.831-7.751c6.612-5.146,13.485-10.445,21.944-11.973c2.036-0.368,4.115-0.501,6.18-0.343
				c1.256,0.097,2.446,0.345,3.624,0.663c-8.696,3.515-16.163,9.55-23.488,15.295C120.268,328.351,111.917,334.699,101.899,336.742z
				"/>
		</g>
		<path style="fill:#DDB76C;" d="M295.564,209.816c-0.327-5.646-1.438-11.288-2.985-16.719c-1.551-5.447-3.524-10.841-6.134-15.874
			c-2.707-5.221-6.025-10.131-9.82-14.621c-4.12-4.874-8.812-9.256-13.955-13.034c-5.135-3.772-10.757-6.879-16.659-9.273
			c-0.744-0.302-1.488-0.602-2.237-0.89c-0.209-0.08-0.352,0.235-0.143,0.319c5.874,2.332,11.472,5.482,16.621,9.139
			c5.163,3.667,9.939,7.858,14.15,12.592c3.923,4.41,7.357,9.261,10.202,14.434c2.702,4.913,5.081,10.044,6.707,15.419
			c1.627,5.379,2.676,10.947,3.13,16.549c0.056,0.688,0.08,1.379,0.127,2.068C294.612,210.568,295.601,210.457,295.564,209.816z"/>
		<path style="fill:#DDB76C;" d="M268.59,176.623c-3.976-5.096-8.465-9.785-13.361-14.004c-4.898-4.221-10.229-7.874-15.864-11.038
			c-3.19-1.791-6.479-3.403-9.865-4.788c-0.504-0.206-0.835,0.576-0.33,0.778c5.98,2.389,11.714,5.304,17.101,8.839
			c5.373,3.527,10.41,7.57,14.98,12.09c2.595,2.566,5.025,5.3,7.294,8.157C268.569,176.685,268.612,176.651,268.59,176.623z"/>
		<path style="fill:#DDB76C;" d="M237.899,135.478c-4.165-1.017-8.567-0.847-12.656,0.44c-0.585,0.184-1.164,0.391-1.735,0.616
			c-0.28,0.111-0.567,0.211-0.845,0.327c-0.276,0.115-0.568,0.224-0.771,0.45c-0.131,0.146-0.053,0.437,0.174,0.421
			c0.502-0.037,0.944-0.378,1.397-0.574c0.486-0.21,0.978-0.402,1.478-0.575c0.987-0.341,1.996-0.617,3.019-0.827
			c2.072-0.425,4.194-0.582,6.306-0.474c1.196,0.062,2.391,0.209,3.565,0.446C237.996,135.762,238.063,135.518,237.899,135.478z"/>
		<path style="fill:#DDB76C;" d="M127.371,230.042c-1.401,0.735-2.854,1.383-4.295,2.038c-1.427,0.648-2.871,1.261-4.328,1.839
			c-2.881,1.142-5.815,2.151-8.795,3.004c-0.838,0.24-1.68,0.469-2.525,0.686c-0.438,0.113-0.877,0.222-1.319,0.318
			c-0.444,0.096-0.889,0.163-1.326,0.289c-0.38,0.109-0.225,0.65,0.153,0.585c0.792-0.137,1.566-0.408,2.344-0.611
			c0.75-0.196,1.498-0.402,2.242-0.618c1.52-0.442,3.029-0.924,4.524-1.445c2.945-1.025,5.833-2.206,8.65-3.543
			c1.607-0.763,3.157-1.616,4.72-2.463C127.465,230.092,127.422,230.015,127.371,230.042z"/>
		<path style="fill:#DDB76C;" d="M164.598,340.206c-3.464,1.455-7.042,2.637-10.685,3.555c-3.619,0.912-7.303,1.571-11.014,1.963
			c-2.094,0.221-4.195,0.341-6.3,0.387c-0.428,0.009-0.427,0.679,0,0.664c3.772-0.137,7.547-0.548,11.26-1.225
			c3.71-0.677,7.369-1.626,10.942-2.83c2.008-0.677,3.989-1.436,5.939-2.265C164.909,340.382,164.766,340.135,164.598,340.206z"/>
		<path style="fill:#DDB76C;" d="M294.477,243.206c-0.668,0.084-1.325,0.39-1.95,0.634c-0.639,0.249-1.273,0.515-1.897,0.8
			c-1.24,0.565-2.448,1.202-3.615,1.906c-2.308,1.392-4.465,3.046-6.396,4.927c-1.099,1.07-2.119,2.225-3.064,3.433
			c-0.137,0.176,0.102,0.428,0.251,0.251c3.435-4.088,7.788-7.409,12.648-9.622c0.668-0.304,1.345-0.587,2.032-0.847
			c0.345-0.13,0.692-0.255,1.041-0.375c0.379-0.13,0.778-0.226,1.132-0.416C294.966,243.733,294.854,243.159,294.477,243.206z"/>
		<path style="fill:#DDB76C;" d="M305.503,212.725c-0.092-0.166-0.346-0.257-0.513-0.141c-1.775,1.226-3.461,2.615-5.086,4.031
			c-1.631,1.422-3.19,2.928-4.663,4.511c-0.835,0.897-1.634,1.825-2.418,2.767c-0.109,0.131,0.072,0.32,0.191,0.19
			c2.875-3.165,6.042-6.094,9.423-8.711c0.956-0.74,1.945-1.429,2.925-2.135C305.528,213.119,305.609,212.917,305.503,212.725z"/>
	</g>
</g>
<g id="PHOTOS">
</g>
<g id="TEXTS">
</g>
</svg>
